@startuml
class ArcTo {
}
class CellType {
}
class ColorEntry {
}
class ColorsTable {
}
class Connect {
}
class ConnectsCollection {
}
class CustomPropertiesCollection {
}
class CustomProperty {
}
class DatadiagramMLXForm_ArcTo {
}
class DatadiagramMLXForm_CellType {
  + err : str
  + formula : str
  + unit : str
  + value : str
}
class DatadiagramMLXForm_Char {
}
class DatadiagramMLXForm_ColorEntry {
  + rgb : str
}
class DatadiagramMLXForm_ColorsTable {
}
class DatadiagramMLXForm_Connect {
  + fromCell : str
  + fromPart : str
  + fromSheet : str
  + toCell : str
  + toPart : str
  + toSheet : str
}
class DatadiagramMLXForm_ConnectsCollection {
}
class DatadiagramMLXForm_Cp {
}
class DatadiagramMLXForm_CustomPropertiesCollection {
}
class DatadiagramMLXForm_CustomProperty {
  + dataType : str
  + name : str
}
class DatadiagramMLXForm_DateTimeType {
  + day : str
  + hour : str
  + minute : str
  + month : str
  + second : str
  + year : str
}
abstract class DatadiagramMLXForm_DelElt {
  + del_ : str
}
class DatadiagramMLXForm_DocumentPropertiesCollection {
  + alternateNames : str
  + buildNumberCreated : str
  + buildNumberEdited : str
  + category : str
  + company : str
  + creator : str
  + description : str
  + hyperlinkBase_href : str
  + keywords : str
  + manager : str
  + subject : str
  + template : str
  + title : str
}
class DatadiagramMLXForm_DocumentSettingsElt {
  + attachedToolbars : str
  + customMenusFile : str
  + customToolbarsFile : str
  + dynamicGridEnabled : str
  + glueSettings : str
  + protectBkgnds : str
  + protectMasters : str
  + protectShapes : str
  + protectStyles : str
  + snapExtensions : str
  + snapSettings : str
}
class DatadiagramMLXForm_DocumentSheet {
}
class DatadiagramMLXForm_Ellipse {
}
class DatadiagramMLXForm_EllipticalArcTo {
}
class DatadiagramMLXForm_EmailRoutingData {
  + data : str
  + size : str
}
class DatadiagramMLXForm_EventList {
}
class DatadiagramMLXForm_FaceName {
  + charSet : str
  + flags : str
  + name : str
  + panos : str
  + unicodeRanges : str
}
class DatadiagramMLXForm_FaceNamesTable {
}
class DatadiagramMLXForm_Field {
}
class DatadiagramMLXForm_Fld {
}
class DatadiagramMLXForm_FontEntry {
  + attributes : str
  + charSet : str
  + name : str
  + pitchAndFamily : str
  + unicode : str
  + weight : str
}
class DatadiagramMLXForm_FontsTable {
}
class DatadiagramMLXForm_Geom {
}
class DatadiagramMLXForm_HeaderFooter {
}
abstract class DatadiagramMLXForm_IXElt {
  + iX : str
}
abstract class DatadiagramMLXForm_IXrequiredElt {
  + iX : str
}
class DatadiagramMLXForm_Icon {
  + value : str
}
abstract class DatadiagramMLXForm_IdentifiedElt {
  + ID : str
}
class DatadiagramMLXForm_InfiniteLine {
}
class DatadiagramMLXForm_LineTo {
}
class DatadiagramMLXForm_Master {
  + alignName : str
  + baseID : str
  + hidden : str
  + iconSize : str
  + iconUpdate : str
  + matchByName : str
  + patternFlags : str
  + prompt : str
}
abstract class DatadiagramMLXForm_MasterElt {
}
class DatadiagramMLXForm_MasterShortCut {
  + alignName : str
  + iconSize : str
  + patternFlags : str
  + prompt : str
  + shortcutHelp : str
  + shortcutURL : str
}
class DatadiagramMLXForm_MastersCollection {
}
class DatadiagramMLXForm_MoveTo {
}
class DatadiagramMLXForm_NURBSTo {
}
abstract class DatadiagramMLXForm_NamedElt {
  + name : str
  + nameU : str
}
class DatadiagramMLXForm_Page {
  + ViewCenterY : str
  + associatedPage : str
  + backPage : str
  + background : str
  + reviewerID : str
  + viewCenterX : str
  + viewScale : str
}
abstract class DatadiagramMLXForm_PageElt {
}
class DatadiagramMLXForm_PageSheet {
}
class DatadiagramMLXForm_PagesCollection {
}
class DatadiagramMLXForm_Para {
}
class DatadiagramMLXForm_PolylineTo {
}
class DatadiagramMLXForm_Pp {
}
class DatadiagramMLXForm_PrintSetup {
}
class DatadiagramMLXForm_Shape {
  + fillStyle : str
  + lineStyle : str
  + textStyle : str
}
abstract class DatadiagramMLXForm_ShapeElt {
}
class DatadiagramMLXForm_ShapesCollection {
}
class DatadiagramMLXForm_SnapAngle {
  + angleValue : str
}
class DatadiagramMLXForm_SnapAnglesCollection {
}
class DatadiagramMLXForm_SolutionXML {
}
class DatadiagramMLXForm_SplineKnot {
}
class DatadiagramMLXForm_SplineStart {
}
class DatadiagramMLXForm_StringElt {
  + value : str
}
class DatadiagramMLXForm_StyleSheet {
}
class DatadiagramMLXForm_StyleSheetsCollection {
}
class DatadiagramMLXForm_Tab {
}
class DatadiagramMLXForm_TabsCollection {
}
class DatadiagramMLXForm_Text {
}
abstract class DatadiagramMLXForm_TextElt {
}
class DatadiagramMLXForm_Tp {
}
abstract class DatadiagramMLXForm_UniqueIdElt {
  + UniqueID : str
}
class DatadiagramMLXForm_VBProjectData {
  + data : str
}
class DatadiagramMLXForm_VisioDocument {
  + buildnum : str
  + docLangId : str
  + key : str
  + metric : str
  + start : str
  + version : str
}
class DatadiagramMLXForm_WindowsInfo {
}
class DatadiagramMLXForm_XForm {
}
abstract class DatadiagramMLXForm_XYABCDEElt {
}
abstract class DatadiagramMLXForm_XYABCDElt {
}
abstract class DatadiagramMLXForm_XYABElt {
}
abstract class DatadiagramMLXForm_XYAElt {
}
abstract class DatadiagramMLXForm_XYElt {
}
class DateTimeType {
}
class DelElt {
}
class DocumentPropertiesCollection {
}
class DocumentSettingsElt {
}
class DocumentSheet {
}
class Ellipse {
}
class EllipticalArcTo {
}
class EmailRoutingData {
}
class EventList {
}
class FaceName {
}
class FaceNamesTable {
}
class FontEntry {
}
class FontsTable {
}
class Geom {
}
class HeaderFooter {
}
class IXElt {
}
class IXrequiredElt {
}
class Icon {
}
class IdentifiedElt {
}
class InfiniteLine {
}
class LineTo {
}
class Master {
}
class MasterElt {
}
class MasterShortCut {
}
class MastersCollection {
}
class MoveTo {
}
class NURBSTo {
}
class NamedElt {
}
class Page {
}
class PageElt {
}
class PageSheet {
}
class PagesCollection {
}
class PolylineTo {
}
class PrintSetup {
}
class Shape {
}
class ShapeElt {
}
class ShapesCollection {
}
class SnapAngle {
}
class SnapAnglesCollection {
}
class SolutionXML {
}
class SplineKnot {
}
class SplineStart {
}
class StyleSheet {
}
class StyleSheetsCollection {
}
class Tab {
}
class TabsCollection {
}
class Text {
}
class TextElt {
}
class UniqueIdElt {
}
class VBProjectData {
}
class VisioDocument {
}
class WindowsInfo {
}
class XYABCDEElt {
}
class XYABCDElt {
}
class XYABElt {
}
class XYAElt {
}
class XYElt {
}
DelElt <|-- DatadiagramMLXForm_Char
DelElt <|-- DatadiagramMLXForm_Field
DelElt <|-- DatadiagramMLXForm_Geom
DelElt <|-- DatadiagramMLXForm_Para
DelElt <|-- DatadiagramMLXForm_TabsCollection
DelElt <|-- DatadiagramMLXForm_XForm
DelElt <|-- DatadiagramMLXForm_XYElt
IXElt <|-- DatadiagramMLXForm_Char
IXElt <|-- DatadiagramMLXForm_Field
IXElt <|-- DatadiagramMLXForm_Geom
IXElt <|-- DatadiagramMLXForm_Para
IXElt <|-- DatadiagramMLXForm_Tab
IXElt <|-- DatadiagramMLXForm_TabsCollection
IXElt <|-- DatadiagramMLXForm_XYElt
IXrequiredElt <|-- DatadiagramMLXForm_ColorEntry
IXrequiredElt <|-- DatadiagramMLXForm_Cp
IXrequiredElt <|-- DatadiagramMLXForm_Fld
IXrequiredElt <|-- DatadiagramMLXForm_Pp
IXrequiredElt <|-- DatadiagramMLXForm_Tp
IdentifiedElt <|-- DatadiagramMLXForm_FaceName
IdentifiedElt <|-- DatadiagramMLXForm_FontEntry
IdentifiedElt <|-- DatadiagramMLXForm_Master
IdentifiedElt <|-- DatadiagramMLXForm_MasterShortCut
IdentifiedElt <|-- DatadiagramMLXForm_Page
IdentifiedElt <|-- DatadiagramMLXForm_StyleSheet
MasterElt <|-- DatadiagramMLXForm_ConnectsCollection
MasterElt <|-- DatadiagramMLXForm_Icon
MasterElt <|-- DatadiagramMLXForm_PageSheet
MasterElt <|-- DatadiagramMLXForm_ShapesCollection
NamedElt <|-- DatadiagramMLXForm_DocumentSheet
NamedElt <|-- DatadiagramMLXForm_Master
NamedElt <|-- DatadiagramMLXForm_MasterShortCut
NamedElt <|-- DatadiagramMLXForm_Page
NamedElt <|-- DatadiagramMLXForm_StyleSheet
PageElt <|-- DatadiagramMLXForm_ConnectsCollection
PageElt <|-- DatadiagramMLXForm_PageSheet
PageElt <|-- DatadiagramMLXForm_ShapesCollection
PageSheet <|-- DatadiagramMLXForm_DocumentSheet
Shape <|-- DatadiagramMLXForm_PageSheet
Shape <|-- DatadiagramMLXForm_StyleSheet
ShapeElt <|-- DatadiagramMLXForm_Char
ShapeElt <|-- DatadiagramMLXForm_Field
ShapeElt <|-- DatadiagramMLXForm_Geom
ShapeElt <|-- DatadiagramMLXForm_Para
ShapeElt <|-- DatadiagramMLXForm_TabsCollection
ShapeElt <|-- DatadiagramMLXForm_Text
ShapeElt <|-- DatadiagramMLXForm_XForm
TextElt <|-- DatadiagramMLXForm_Cp
TextElt <|-- DatadiagramMLXForm_Fld
TextElt <|-- DatadiagramMLXForm_Pp
TextElt <|-- DatadiagramMLXForm_StringElt
TextElt <|-- DatadiagramMLXForm_Tp
UniqueIdElt <|-- DatadiagramMLXForm_Master
UniqueIdElt <|-- DatadiagramMLXForm_PageSheet
XYABCDEElt <|-- DatadiagramMLXForm_NURBSTo
XYABCDElt <|-- DatadiagramMLXForm_Ellipse
XYABCDElt <|-- DatadiagramMLXForm_EllipticalArcTo
XYABCDElt <|-- DatadiagramMLXForm_SplineStart
XYABCDElt <|-- DatadiagramMLXForm_XYABCDEElt
XYABElt <|-- DatadiagramMLXForm_InfiniteLine
XYABElt <|-- DatadiagramMLXForm_XYABCDElt
XYAElt <|-- DatadiagramMLXForm_ArcTo
XYAElt <|-- DatadiagramMLXForm_PolylineTo
XYAElt <|-- DatadiagramMLXForm_SplineKnot
XYAElt <|-- DatadiagramMLXForm_XYABElt
XYElt <|-- DatadiagramMLXForm_LineTo
XYElt <|-- DatadiagramMLXForm_MoveTo
XYElt <|-- DatadiagramMLXForm_XYAElt
CellType "0..1" --* "1..1" DatadiagramMLXForm_XYAElt : a114
DatadiagramMLXForm_ArcTo "1..1" -- "1..1" Geom : ac_geom116
CellType "0..1" --* "1..1" DatadiagramMLXForm_Tab : alignment238
CellType "0..1" --* "1..1" DatadiagramMLXForm_XForm : angle284
ArcTo "0..9999" --* "1..1" DatadiagramMLXForm_Geom : arcsTo98
CellType "0..1" --* "1..1" DatadiagramMLXForm_XYABElt : b122
CellType "0..1" --* "1..1" DatadiagramMLXForm_Para : bullet213
CellType "0..1" --* "1..1" DatadiagramMLXForm_Para : bulletFont219
CellType "0..1" --* "1..1" DatadiagramMLXForm_Para : bulletFontSize225
CellType "0..1" --* "1..1" DatadiagramMLXForm_Para : bulletStr216
CellType "0..1" --* "1..1" DatadiagramMLXForm_XYABCDElt : c126
ConnectsCollection "1..1" -- "1..1" DatadiagramMLXForm_Connect : c_connects311
CellType "0..1" --* "1..1" DatadiagramMLXForm_Field : calendar261
CellType "0..1" --* "1..1" DatadiagramMLXForm_Char : case151
ColorsTable "1..1" -- "1..1" DatadiagramMLXForm_ColorEntry : ce_colors57
CellType "0..1" --* "1..1" DatadiagramMLXForm_Char : color145
ColorEntry "0..9999" --* "1..1" DatadiagramMLXForm_ColorsTable : colorEntries56
CellType "0..1" --* "1..1" DatadiagramMLXForm_Char : colorTrans184
Connect "0..9999" --* "1..1" DatadiagramMLXForm_ConnectsCollection : connections310
CustomPropertiesCollection "1..1" -- "1..1" DatadiagramMLXForm_CustomProperty : cp_customProps32
CustomProperty "0..9999" --* "1..1" DatadiagramMLXForm_CustomPropertiesCollection : cps_customProps31
DatadiagramMLXForm_CustomPropertiesCollection "1..1" -- "1..1" DocumentPropertiesCollection : cps_docProp29
DatadiagramMLXForm_ColorsTable "1..1" -- "1..1" VisioDocument : cs_visioDocument54
CustomPropertiesCollection "0..1" --* "1..1" DatadiagramMLXForm_DocumentPropertiesCollection : customProps18
CellType "0..1" --* "1..1" DatadiagramMLXForm_XYABCDElt : d128
CellType "0..1" --* "1..1" DatadiagramMLXForm_Char : dblUnderline163
DatadiagramMLXForm_DocumentSettingsElt "1..1" *-- "0..1" StyleSheet : defaultFillStyle42
DatadiagramMLXForm_DocumentSettingsElt "1..1" *-- "0..1" StyleSheet : defaultGuideStyle45
DatadiagramMLXForm_DocumentSettingsElt "1..1" *-- "0..1" StyleSheet : defaultLineStyle39
DatadiagramMLXForm_DocumentSettingsElt "1..1" *-- "0..1" StyleSheet : defaultTextStyle37
ColorsTable "0..1" --* "1..1" DatadiagramMLXForm_VisioDocument : docColors2
DatadiagramMLXForm_VisioDocument "1..1" *-- "0..1" DocumentSheet : docDocumentSheet7
DatadiagramMLXForm_VisioDocument "1..1" *-- "0..1" EmailRoutingData : docEmailRoutingData15
DatadiagramMLXForm_VisioDocument "1..1" *-- "0..1" EventList : docEventList12
DatadiagramMLXForm_VisioDocument "1..1" *-- "0..1" FaceNamesTable : docFaceNames5
DatadiagramMLXForm_VisioDocument "1..1" *-- "0..1" FontsTable : docFonts4
DatadiagramMLXForm_VisioDocument "1..1" *-- "0..1" HeaderFooter : docHeaderFooter13
DatadiagramMLXForm_VisioDocument "1..1" *-- "0..1" MastersCollection : docMasters8
DatadiagramMLXForm_VisioDocument "1..1" *-- "0..1" PagesCollection : docPages9
DatadiagramMLXForm_VisioDocument "1..1" *-- "0..1" PrintSetup : docPrintSetup3
DatadiagramMLXForm_VisioDocument "1..1" *-- "0..1" DocumentPropertiesCollection : docProps0
DatadiagramMLXForm_VisioDocument "1..1" *-- "0..1" DocumentSettingsElt : docSettings1
DatadiagramMLXForm_VisioDocument "1..1" *-- "0..9999" SolutionXML : docSolutionXML16
DatadiagramMLXForm_VisioDocument "1..1" *-- "0..1" StyleSheetsCollection : docStyleSheets6
DatadiagramMLXForm_VisioDocument "1..1" *-- "0..1" VBProjectData : docVBProjectData14
DatadiagramMLXForm_VisioDocument "1..1" *-- "0..1" WindowsInfo : docWindows11
CellType "0..1" --* "1..1" DatadiagramMLXForm_Char : doubleStrikethrough172
DatadiagramMLXForm_DocumentPropertiesCollection "1..1" -- "1..1" VisioDocument : dps_visioDocument17
DatadiagramMLXForm_DocumentSettingsElt "1..1" *-- "0..1" SnapAnglesCollection : ds_snapAngles48
DatadiagramMLXForm_DocumentSheet "1..1" -- "1..1" VisioDocument : ds_visioDocument81
DatadiagramMLXForm_DocumentSettingsElt "1..1" -- "1..1" VisioDocument : dss_visioDocument34
CellType "0..1" --* "1..1" DatadiagramMLXForm_XYABCDEElt : e137
DatadiagramMLXForm_Ellipse "1..1" -- "1..1" Geom : e_geom131
DatadiagramMLXForm_EllipticalArcTo "1..1" -- "1..1" Geom : eat_geom133
CellType "0..1" --* "1..1" DatadiagramMLXForm_Field : editMode243
DatadiagramMLXForm_HeaderFooter "1..1" -- "1..1" VisioDocument : ef_visioDocument327
DatadiagramMLXForm_EventList "1..1" -- "1..1" VisioDocument : el_visioDocument325
DatadiagramMLXForm_Geom "1..1" *-- "0..9999" Ellipse : ellipses102
DatadiagramMLXForm_Geom "1..1" *-- "0..9999" EllipticalArcTo : ellipticalArcsTo103
DatadiagramMLXForm_EmailRoutingData "1..1" -- "1..1" VisioDocument : erd_visioDocument73
DatadiagramMLXForm_FaceNamesTable "1..1" *-- "0..9999" FaceName : faceNameEntries68
DatadiagramMLXForm_FontEntry "1..1" -- "1..1" FontsTable : fe_fonts64
CellType "0..1" --* "1..1" DatadiagramMLXForm_Para : flags231
CellType "0..1" --* "1..1" DatadiagramMLXForm_XForm : flipX287
CellType "0..1" --* "1..1" DatadiagramMLXForm_XForm : flipY290
DatadiagramMLXForm_FaceName "1..1" -- "1..1" FaceNamesTable : fn_faceNames69
DatadiagramMLXForm_FaceNamesTable "1..1" -- "1..1" VisioDocument : fns_visioDocument66
CellType "0..1" --* "1..1" DatadiagramMLXForm_Char : font143
DatadiagramMLXForm_FontsTable "1..1" *-- "0..9999" FontEntry : fontEntries63
CellType "0..1" --* "1..1" DatadiagramMLXForm_Char : fontScale157
CellType "0..1" --* "1..1" DatadiagramMLXForm_Field : format246
DatadiagramMLXForm_FontsTable "1..1" -- "1..1" VisioDocument : fs_visioDocument61
CellType "0..1" --* "1..1" DatadiagramMLXForm_XForm : height275
CellType "0..1" --* "1..1" DatadiagramMLXForm_Para : horzAlign210
DatadiagramMLXForm_Icon "1..1" -- "1..1" MasterShortCut : i_masterShortCut303
DatadiagramMLXForm_MasterShortCut "1..1" *-- "0..9999" Icon : icons302
DatadiagramMLXForm_InfiniteLine "1..1" -- "1..1" Geom : il_geom124
CellType "0..1" --* "1..1" DatadiagramMLXForm_Para : indFirst193
CellType "0..1" --* "1..1" DatadiagramMLXForm_Para : indLeft195
CellType "0..1" --* "1..1" DatadiagramMLXForm_Para : indRight198
DatadiagramMLXForm_Geom "1..1" *-- "0..9999" InfiniteLine : infiniteLines101
CellType "0..1" --* "1..1" DatadiagramMLXForm_Char : langID190
CellType "0..1" --* "1..1" DatadiagramMLXForm_Char : letterspace181
DatadiagramMLXForm_Geom "1..1" *-- "0..9999" LineTo : linesTo96
CellType "0..1" --* "1..1" DatadiagramMLXForm_XForm : locPinX278
CellType "0..1" --* "1..1" DatadiagramMLXForm_XForm : locPinY281
CellType "0..1" --* "1..1" DatadiagramMLXForm_Para : localizeBulletFont222
CellType "0..1" --* "1..1" DatadiagramMLXForm_Char : localizeFont187
DatadiagramMLXForm_LineTo "1..1" -- "1..1" Geom : lt_geom111
DatadiagramMLXForm_MasterShortCut "1..1" -- "1..1" MastersCollection : m_masterShortCuts300
DatadiagramMLXForm_Master "1..1" -- "1..1" MastersCollection : m_masters305
DatadiagramMLXForm_Master "1..1" *-- "0..9999" MasterElt : masterElts307
DatadiagramMLXForm_MastersCollection "1..1" *-- "0..9999" MasterShortCut : masterShortCuts299
DatadiagramMLXForm_MastersCollection "1..1" *-- "0..9999" Master : masters298
DatadiagramMLXForm_MasterElt "1..1" -- "1..1" Master : me_master312
DatadiagramMLXForm_Geom "1..1" *-- "0..9999" MoveTo : movesTo97
DatadiagramMLXForm_MastersCollection "1..1" -- "1..1" VisioDocument : ms_visioDocument296
DatadiagramMLXForm_MoveTo "1..1" -- "1..1" Geom : mt_geom112
CellType "0..1" --* "1..1" DatadiagramMLXForm_Geom : noFill86
CellType "0..1" --* "1..1" DatadiagramMLXForm_Geom : noLine87
CellType "0..1" --* "1..1" DatadiagramMLXForm_Geom : noShow90
CellType "0..1" --* "1..1" DatadiagramMLXForm_Geom : noSnap93
DatadiagramMLXForm_NURBSTo "1..1" -- "1..1" Geom : nt_geom139
DatadiagramMLXForm_Geom "1..1" *-- "0..9999" NURBSTo : nurbsTo105
CellType "0..1" --* "1..1" DatadiagramMLXForm_Field : objectKind264
CellType "0..1" --* "1..1" DatadiagramMLXForm_Char : overline166
DatadiagramMLXForm_Page "1..1" -- "1..1" PagesCollection : p_pages318
DatadiagramMLXForm_Page "1..1" *-- "0..9999" PageElt : pageElts320
DatadiagramMLXForm_PagesCollection "1..1" *-- "0..9999" Page : pages316
DatadiagramMLXForm_PageElt "1..1" -- "1..1" Page : pe_page321
CellType "0..1" --* "1..1" DatadiagramMLXForm_XForm : pinX267
CellType "0..1" --* "1..1" DatadiagramMLXForm_XForm : pinY269
DatadiagramMLXForm_Geom "1..1" *-- "0..9999" PolylineTo : polylinesTo100
CellType "0..1" --* "1..1" DatadiagramMLXForm_Char : pos154
CellType "0..1" --* "1..1" DatadiagramMLXForm_Tab : position236
DatadiagramMLXForm_PagesCollection "1..1" -- "1..1" VisioDocument : ps_visioDocument314
DatadiagramMLXForm_PrintSetup "1..1" -- "1..1" VisioDocument : ps_visioDocument59
DatadiagramMLXForm_PolylineTo "1..1" -- "1..1" Geom : pt_geom120
CellType "0..1" --* "1..1" DatadiagramMLXForm_XForm : resizeMode293
CellType "0..1" --* "1..1" DatadiagramMLXForm_Char : rtlText175
CellType "0..1" --* "1..1" DatadiagramMLXForm_Char : runVertical178
DatadiagramMLXForm_SnapAnglesCollection "1..1" -- "1..1" DocumentSettingsElt : sa_docSettings49
DatadiagramMLXForm_SnapAngle "1..1" -- "1..1" SnapAnglesCollection : sa_snapAngles52
DatadiagramMLXForm_Shape "1..1" *-- "0..9999" ShapeElt : shapeElts84
DatadiagramMLXForm_ShapesCollection "1..1" *-- "0..9999" Shape : shapes308
CellType "0..1" --* "1..1" DatadiagramMLXForm_Char : size160
DatadiagramMLXForm_SplineKnot "1..1" -- "1..1" Geom : sk_geom118
DatadiagramMLXForm_SnapAnglesCollection "1..1" *-- "0..9999" SnapAngle : snapAngles51
CellType "0..1" --* "1..1" DatadiagramMLXForm_Para : spAfter207
CellType "0..1" --* "1..1" DatadiagramMLXForm_Para : spBefore204
CellType "0..1" --* "1..1" DatadiagramMLXForm_Para : spLine201
DatadiagramMLXForm_Geom "1..1" *-- "0..9999" SplineKnot : splineKnots99
DatadiagramMLXForm_Geom "1..1" *-- "0..9999" SplineStart : splineStarts104
DatadiagramMLXForm_SplineStart "1..1" -- "1..1" Geom : ss_geom135
DatadiagramMLXForm_Shape "1..1" -- "1..1" ShapesCollection : ss_shapes83
DatadiagramMLXForm_StyleSheet "1..1" -- "1..1" StyleSheetsCollection : ss_stylesSheets79
DatadiagramMLXForm_ShapeElt "1..1" -- "1..1" Shape : sse_shapeSheet85
DatadiagramMLXForm_StyleSheetsCollection "1..1" -- "1..1" VisioDocument : sss_visioDocument75
CellType "0..1" --* "1..1" DatadiagramMLXForm_Char : strikethru169
CellType "0..1" --* "1..1" DatadiagramMLXForm_Char : style148
DatadiagramMLXForm_StyleSheetsCollection "1..1" *-- "0..9999" StyleSheet : stylesSheets77
DatadiagramMLXForm_SolutionXML "1..1" -- "1..1" VisioDocument : sx_visioDocument329
DatadiagramMLXForm_Tab "1..1" -- "1..1" TabsCollection : t_tabs235
DatadiagramMLXForm_TabsCollection "1..1" *-- "0..9999" Tab : tabs234
DatadiagramMLXForm_TextElt "1..1" -- "1..1" Text : te_text142
DatadiagramMLXForm_Text "1..1" *-- "0..9999" TextElt : textElts141
CellType "0..1" --* "1..1" DatadiagramMLXForm_Para : textPosAfterBullet228
DatadiagramMLXForm_DocumentPropertiesCollection "1..1" *-- "0..1" DateTimeType : timeCreated19
DatadiagramMLXForm_DocumentPropertiesCollection "1..1" *-- "0..1" DateTimeType : timeEdited23
DatadiagramMLXForm_DocumentPropertiesCollection "1..1" *-- "0..1" DateTimeType : timePrinted26
DatadiagramMLXForm_DocumentPropertiesCollection "1..1" *-- "0..1" DateTimeType : timeSaved20
DatadiagramMLXForm_DocumentSettingsElt "1..1" *-- "0..1" Page : topPage36
CellType "0..1" --* "1..1" DatadiagramMLXForm_Field : type249
CellType "0..1" --* "1..1" DatadiagramMLXForm_Field : uiCat252
CellType "0..1" --* "1..1" DatadiagramMLXForm_Field : uiCode255
CellType "0..1" --* "1..1" DatadiagramMLXForm_Field : uiFmt258
CellType "0..1" --* "1..1" DatadiagramMLXForm_Field : value241
DatadiagramMLXForm_VBProjectData "1..1" -- "1..1" VisioDocument : vpd_visioDocument71
CellType "0..1" --* "1..1" DatadiagramMLXForm_XForm : width272
DatadiagramMLXForm_WindowsInfo "1..1" -- "1..1" VisioDocument : ws_visioDocument323
CellType "0..1" --* "1..1" DatadiagramMLXForm_XYElt : x106
CellType "0..1" --* "1..1" DatadiagramMLXForm_XYElt : y108
@enduml