@startuml
class NamedElement {
}
class classdiagram_Attribute {
}
class classdiagram_Class {
}
class classdiagram_Method {
}
class classdiagram_NamedElement {
  + name : str
}
NamedElement <|-- classdiagram_Attribute
NamedElement <|-- classdiagram_Class
NamedElement <|-- classdiagram_Method
classdiagram_Attribute "0..9999" --* "1..1" classdiagram_Class : attributes5
classdiagram_Class "1..1" -- "0..9999" classdiagram_Class : children3
classdiagram_Class "1..1" *-- "0..9999" classdiagram_Method : methods6
classdiagram_Class "1..1" -- "0..1" classdiagram_Class : super1
@enduml