@startuml
class CSTrace {
}
class addOp {
}
class classHeritage {
}
class conditionalStmt {
}
class constExpr {
}
class declSection {
}
abstract class delphi_CSTrace {
}
class delphi_ConstExp {
}
class delphi_MineID {
  + first : str
  + second : str
}
class delphi_MultipleConstExp {
}
class delphi_MultipleId {
  + id : str
}
class delphi_RecordConstExp {
}
class delphi_ReservedId {
}
class delphi_Visitable {
}
class delphi_adOp {
  + op : str
}
class delphi_addExp {
}
class delphi_addOp {
}
class delphi_arrayConstant {
}
class delphi_arrayType {
}
class delphi_assemblerStmt {
}
class delphi_assignmentStmnt {
  + operator : str
}
class delphi_block {
}
class delphi_callStmnt {
}
class delphi_caseLabel {
}
class delphi_caseSelector {
}
class delphi_caseStmt {
}
class delphi_classField {
  + visibility : str
}
class delphi_classFieldList {
}
class delphi_classHeritage {
}
class delphi_classMethod {
  + visibility : str
}
class delphi_classMethodList {
}
class delphi_classProperty {
  + visibility : str
}
class delphi_classPropertyList {
}
class delphi_classRefType {
}
class delphi_classType {
  + visibility : str
}
class delphi_compoundStmt {
}
class delphi_conditionalStmt {
}
class delphi_constExpr {
}
class delphi_constSection {
}
class delphi_constantDecl {
  + port : str
}
class delphi_constructorHeading {
}
class delphi_containsClause {
}
class delphi_declSection {
}
class delphi_designator {
}
class delphi_designatorPart {
  + id : str
  + id2 : str
}
class delphi_designatorSubPart {
}
class delphi_destructorHeading {
}
class delphi_directive {
  + dir : str
}
class delphi_enumeratedType {
}
class delphi_enumeratedTypeElement {
}
class delphi_exceptionBlock {
}
class delphi_exportedHeading {
}
class delphi_exportsItem {
}
class delphi_exportsStmt {
}
class delphi_exprList {
}
class delphi_expression {
}
class delphi_factor {
  + number : str
  + string : str
}
class delphi_fieldDecl {
  + port : str
}
class delphi_fieldList {
}
class delphi_file {
}
class delphi_fileType {
}
class delphi_forStmt {
}
class delphi_formalParameters {
}
class delphi_formalParm {
}
class delphi_functionDecl {
}
class delphi_functionHeading {
}
class delphi_gotoStmnt {
  + label : str
}
class delphi_ident {
}
class delphi_identList {
}
class delphi_ifStmt {
}
class delphi_implementationSection {
}
class delphi_inheritedStamnt {
}
class delphi_initSection {
}
class delphi_interfaceDecl {
}
class delphi_interfaceHeritage {
}
class delphi_interfaceSection {
}
class delphi_interfaceType {
}
class delphi_labelDeclSection {
  + id : str
}
class delphi_library {
}
class delphi_loopStmt {
}
class delphi_mainRule {
}
class delphi_methodHeading {
}
class delphi_methodList {
}
class delphi_mulOp {
  + op : str
}
class delphi_multExp {
}
class delphi_objFieldList {
}
class delphi_objHeritage {
}
class delphi_objectType {
}
class delphi_ordIdent {
}
class delphi_ordinalType {
}
class delphi_packageDecl {
}
class delphi_parameter {
}
class delphi_parameterList {
}
class delphi_parameterSimple {
}
class delphi_pointerType {
}
class delphi_procedureDecl {
}
class delphi_procedureDeclSection {
  + port : str
}
class delphi_procedureHeading {
}
class delphi_procedureType {
}
class delphi_program {
}
class delphi_programBlock {
}
class delphi_propertyInterface {
}
class delphi_propertyList {
  + port : str
}
class delphi_propertyParameterList {
}
class delphi_propertySpecifiers {
}
class delphi_qualId {
}
class delphi_raiseStmt {
  + at : str
  + raise_ : str
}
class delphi_realType {
}
class delphi_recType {
}
class delphi_recVariant {
}
class delphi_recordConstExpr {
}
class delphi_recordConstant {
}
class delphi_recordFieldConstant {
}
class delphi_relExp {
}
class delphi_relOp {
  + op : str
}
class delphi_repeatStmt {
}
class delphi_requiresClause {
}
class delphi_reservedWord {
  + id : str
}
class delphi_restrictedType {
}
class delphi_setConstructor {
}
class delphi_setElement {
}
class delphi_setType {
}
class delphi_simpleExpression {
}
class delphi_simpleFactor {
}
class delphi_simpleStatement {
}
class delphi_simpleType {
}
class delphi_statement {
  + labelId : str
}
class delphi_stmtList {
}
class delphi_stringType {
}
class delphi_strucType {
  + port : str
}
class delphi_structStmt {
}
class delphi_subrangeType {
}
class delphi_term {
}
class delphi_tryStmt {
}
class delphi_type {
}
class delphi_typeDecl {
  + port : str
}
class delphi_typeId {
}
class delphi_typeSection {
}
class delphi_typedConstant {
}
class delphi_unit {
  + port : str
}
class delphi_unitId {
  + id : str
}
class delphi_unlabelledStatement {
}
class delphi_usesClause {
}
class delphi_varDecl {
}
class delphi_varSection {
}
class delphi_variantSection {
}
class delphi_variantType {
}
class delphi_whileStmt {
}
class delphi_withStmt {
}
class expression {
}
class factor {
}
class file {
}
class ident {
}
class interfaceDecl {
}
class loopStmt {
}
class methodHeading {
}
class objFieldList {
}
class ordinalType {
}
class parameter {
}
class pointerType {
}
class procedureDeclSection {
}
class restrictedType {
}
class simpleExpression {
}
class simpleStatement {
}
class simpleType {
}
class strucType {
}
class structStmt {
}
class term {
}
class type {
}
class unlabelledStatement {
}
CSTrace <|-- delphi_addOp
CSTrace <|-- delphi_arrayConstant
CSTrace <|-- delphi_block
CSTrace <|-- delphi_caseLabel
CSTrace <|-- delphi_caseSelector
CSTrace <|-- delphi_classField
CSTrace <|-- delphi_classFieldList
CSTrace <|-- delphi_classHeritage
CSTrace <|-- delphi_classMethod
CSTrace <|-- delphi_classMethodList
CSTrace <|-- delphi_classProperty
CSTrace <|-- delphi_classPropertyList
CSTrace <|-- delphi_constExpr
CSTrace <|-- delphi_constantDecl
CSTrace <|-- delphi_containsClause
CSTrace <|-- delphi_declSection
CSTrace <|-- delphi_designator
CSTrace <|-- delphi_designatorPart
CSTrace <|-- delphi_designatorSubPart
CSTrace <|-- delphi_directive
CSTrace <|-- delphi_enumeratedTypeElement
CSTrace <|-- delphi_exceptionBlock
CSTrace <|-- delphi_exportsItem
CSTrace <|-- delphi_exportsStmt
CSTrace <|-- delphi_exprList
CSTrace <|-- delphi_expression
CSTrace <|-- delphi_fieldDecl
CSTrace <|-- delphi_fieldList
CSTrace <|-- delphi_file
CSTrace <|-- delphi_formalParameters
CSTrace <|-- delphi_formalParm
CSTrace <|-- delphi_ident
CSTrace <|-- delphi_implementationSection
CSTrace <|-- delphi_initSection
CSTrace <|-- delphi_interfaceDecl
CSTrace <|-- delphi_interfaceHeritage
CSTrace <|-- delphi_interfaceSection
CSTrace <|-- delphi_mainRule
CSTrace <|-- delphi_methodHeading
CSTrace <|-- delphi_methodList
CSTrace <|-- delphi_mulOp
CSTrace <|-- delphi_objFieldList
CSTrace <|-- delphi_objHeritage
CSTrace <|-- delphi_parameter
CSTrace <|-- delphi_programBlock
CSTrace <|-- delphi_propertyInterface
CSTrace <|-- delphi_propertyList
CSTrace <|-- delphi_propertyParameterList
CSTrace <|-- delphi_propertySpecifiers
CSTrace <|-- delphi_qualId
CSTrace <|-- delphi_recVariant
CSTrace <|-- delphi_recordConstExpr
CSTrace <|-- delphi_recordConstant
CSTrace <|-- delphi_recordFieldConstant
CSTrace <|-- delphi_relOp
CSTrace <|-- delphi_requiresClause
CSTrace <|-- delphi_reservedWord
CSTrace <|-- delphi_restrictedType
CSTrace <|-- delphi_setConstructor
CSTrace <|-- delphi_setElement
CSTrace <|-- delphi_statement
CSTrace <|-- delphi_stmtList
CSTrace <|-- delphi_type
CSTrace <|-- delphi_typeDecl
CSTrace <|-- delphi_typedConstant
CSTrace <|-- delphi_unitId
CSTrace <|-- delphi_unlabelledStatement
CSTrace <|-- delphi_usesClause
CSTrace <|-- delphi_varDecl
CSTrace <|-- delphi_variantSection
addOp <|-- delphi_adOp
classHeritage <|-- delphi_identList
conditionalStmt <|-- delphi_caseStmt
conditionalStmt <|-- delphi_ifStmt
constExpr <|-- delphi_ConstExp
constExpr <|-- delphi_MultipleConstExp
constExpr <|-- delphi_RecordConstExp
declSection <|-- delphi_constSection
declSection <|-- delphi_labelDeclSection
declSection <|-- delphi_procedureDeclSection
declSection <|-- delphi_typeSection
declSection <|-- delphi_varSection
expression <|-- delphi_relExp
expression <|-- delphi_simpleExpression
factor <|-- delphi_simpleFactor
file <|-- delphi_library
file <|-- delphi_packageDecl
file <|-- delphi_program
file <|-- delphi_unit
ident <|-- delphi_MineID
ident <|-- delphi_MultipleId
ident <|-- delphi_ReservedId
interfaceDecl <|-- delphi_constSection
interfaceDecl <|-- delphi_exportedHeading
interfaceDecl <|-- delphi_typeSection
interfaceDecl <|-- delphi_varSection
loopStmt <|-- delphi_forStmt
loopStmt <|-- delphi_repeatStmt
loopStmt <|-- delphi_whileStmt
methodHeading <|-- delphi_constructorHeading
methodHeading <|-- delphi_destructorHeading
methodHeading <|-- delphi_functionHeading
methodHeading <|-- delphi_procedureHeading
objFieldList <|-- delphi_identList
ordinalType <|-- delphi_enumeratedType
ordinalType <|-- delphi_ordIdent
ordinalType <|-- delphi_subrangeType
parameter <|-- delphi_parameterList
parameter <|-- delphi_parameterSimple
pointerType <|-- delphi_typeId
procedureDeclSection <|-- delphi_functionDecl
procedureDeclSection <|-- delphi_procedureDecl
restrictedType <|-- delphi_classType
restrictedType <|-- delphi_interfaceType
restrictedType <|-- delphi_objectType
simpleExpression <|-- delphi_addExp
simpleExpression <|-- delphi_term
simpleStatement <|-- delphi_assignmentStmnt
simpleStatement <|-- delphi_callStmnt
simpleStatement <|-- delphi_gotoStmnt
simpleStatement <|-- delphi_inheritedStamnt
simpleType <|-- delphi_ordinalType
simpleType <|-- delphi_realType
strucType <|-- delphi_arrayType
strucType <|-- delphi_fileType
strucType <|-- delphi_recType
strucType <|-- delphi_setType
structStmt <|-- delphi_assemblerStmt
structStmt <|-- delphi_compoundStmt
structStmt <|-- delphi_conditionalStmt
structStmt <|-- delphi_loopStmt
structStmt <|-- delphi_raiseStmt
structStmt <|-- delphi_tryStmt
structStmt <|-- delphi_withStmt
term <|-- delphi_factor
term <|-- delphi_multExp
type <|-- delphi_classRefType
type <|-- delphi_pointerType
type <|-- delphi_procedureType
type <|-- delphi_simpleType
type <|-- delphi_stringType
type <|-- delphi_strucType
type <|-- delphi_typeId
type <|-- delphi_variantType
unlabelledStatement <|-- delphi_simpleStatement
unlabelledStatement <|-- delphi_structStmt
delphi_constExpr "0..1" --* "1..1" delphi_varDecl : absConst159
delphi_ident "0..1" --* "1..1" delphi_varDecl : absId156
delphi_constExpr "0..1" --* "1..1" delphi_varDecl : absIniti162
delphi_addExp "1..1" *-- "0..1" delphi_addOp : addOp418
delphi_callStmnt "1..1" *-- "0..1" delphi_exprList : args436
delphi_arrayConstant "0..1" --* "1..1" delphi_typedConstant : array77
delphi_CSTrace "1..1" -- "0..1" delphi_Visitable : ast454
delphi_block "0..1" --* "1..1" delphi_programBlock : block18
delphi_block "0..1" --* "1..1" delphi_procedureDeclSection : block268
delphi_program "1..1" *-- "0..1" delphi_programBlock : block4
delphi_caseSelector "0..9999" --* "1..1" delphi_caseStmt : cases217
delphi_block "1..1" *-- "0..1" delphi_compoundStmt : compound46
delphi_expression "0..1" --* "1..1" delphi_ifStmt : condition207
delphi_expression "0..1" --* "1..1" delphi_loopStmt : condition235
delphi_constExpr "0..1" --* "1..1" delphi_constantDecl : const59
delphi_constExpr "0..1" --* "1..1" delphi_typedConstant : const74
delphi_constExpr "0..1" --* "1..1" delphi_stringType : constExp106
delphi_constExpr "0..9999" --* "1..1" delphi_recVariant : constExp134
delphi_constExpr "0..1" --* "1..1" delphi_recordConstExpr : constExp407
delphi_constExpr "0..9999" --* "1..1" delphi_exportsItem : constExp50
delphi_constSection "1..1" *-- "0..9999" delphi_constantDecl : constantDecl55
delphi_containsClause "0..1" --* "1..1" delphi_packageDecl : contains12
delphi_declSection "0..9999" --* "1..1" delphi_implementationSection : declSect36
delphi_block "1..1" *-- "0..1" delphi_declSection : declSect40
delphi_constExpr "0..1" --* "1..1" delphi_propertySpecifiers : defaulExp366
delphi_caseStmt "1..1" *-- "0..1" delphi_stmtList : default219
delphi_designator "0..1" --* "1..1" delphi_factor : designator165
delphi_designator "0..1" --* "1..1" delphi_designator : designator181
delphi_assignmentStmnt "1..1" *-- "0..1" delphi_designator : designator429
delphi_callStmnt "1..1" *-- "0..1" delphi_designator : designator434
delphi_directive "0..1" --* "1..1" delphi_procedureDeclSection : directive266
delphi_directive "0..1" --* "1..1" delphi_exportedHeading : directive29
delphi_directive "0..9999" --* "1..1" delphi_methodList : directive297
delphi_exceptionBlock "1..1" *-- "0..9999" delphi_statement : doStmt260
delphi_setConstructor "1..1" *-- "0..9999" delphi_setElement : element190
delphi_enumeratedType "1..1" *-- "0..9999" delphi_enumeratedTypeElement : element99
delphi_exceptionBlock "1..1" *-- "0..1" delphi_stmtList : elseStmts263
delphi_ifStmt "1..1" *-- "0..1" delphi_statement : else_212
delphi_initSection "1..1" *-- "0..1" delphi_stmtList : endStmtList309
delphi_exceptionBlock "0..1" --* "1..1" delphi_tryStmt : exception249
delphi_exceptionBlock "1..1" *-- "0..9999" delphi_ident : exceptionId254
delphi_expression "0..1" --* "1..1" delphi_factor : exp170
delphi_assignmentStmnt "1..1" *-- "0..1" delphi_expression : exp431
delphi_ConstExp "1..1" *-- "0..1" delphi_expression : exp448
delphi_exprList "0..1" --* "1..1" delphi_factor : expList166
delphi_exportsStmt "0..9999" --* "1..1" delphi_implementationSection : exports38
delphi_block "1..1" *-- "0..9999" delphi_exportsStmt : exports43
delphi_designatorSubPart "1..1" *-- "0..9999" delphi_exprList : exprList185
delphi_caseStmt "1..1" *-- "0..1" delphi_expression : expression215
delphi_exprList "1..1" *-- "0..9999" delphi_expression : exps198
delphi_MultipleConstExp "1..1" *-- "0..9999" delphi_constExpr : exps450
delphi_RecordConstExp "1..1" *-- "0..9999" delphi_recordConstExpr : exps452
delphi_functionHeading "0..1" --* "1..1" delphi_procedureType : fHeading146
delphi_exportedHeading "1..1" *-- "0..1" delphi_functionHeading : fHeading31
delphi_fieldDecl "0..9999" --* "1..1" delphi_fieldList : field116
delphi_classField "0..9999" --* "1..1" delphi_classFieldList : field319
delphi_fieldList "0..1" --* "1..1" delphi_recVariant : fieldList137
delphi_objFieldList "0..1" --* "1..1" delphi_objectType : fieldList288
delphi_classFieldList "0..1" --* "1..1" delphi_classType : fieldList313
delphi_classField "1..1" *-- "0..1" delphi_objFieldList : fieldList321
delphi_fieldList "0..1" --* "1..1" delphi_recType : fields115
delphi_file "0..1" --* "1..1" delphi_mainRule : file0
delphi_stmtList "0..1" --* "1..1" delphi_tryStmt : final251
delphi_expression "0..1" --* "1..1" delphi_setElement : first192
delphi_caseLabel "1..1" *-- "0..1" delphi_constExpr : first227
delphi_constExpr "0..1" --* "1..1" delphi_subrangeType : first94
delphi_formalParameters "0..1" --* "1..1" delphi_methodHeading : formalParams303
delphi_procedureDecl "1..1" *-- "0..1" delphi_procedureHeading : heading271
delphi_functionDecl "1..1" *-- "0..1" delphi_functionHeading : heading273
delphi_methodHeading "0..1" --* "1..1" delphi_methodList : heading295
delphi_objHeritage "0..1" --* "1..1" delphi_objectType : heritage287
delphi_classHeritage "0..1" --* "1..1" delphi_classType : heritage312
delphi_interfaceHeritage "0..1" --* "1..1" delphi_interfaceType : heritage372
delphi_file "1..1" *-- "0..1" delphi_ident : id1
delphi_enumeratedTypeElement "1..1" *-- "0..1" delphi_ident : id100
delphi_ident "0..1" --* "1..1" delphi_variantSection : id126
delphi_objHeritage "1..1" *-- "0..1" delphi_qualId : id292
delphi_ident "0..1" --* "1..1" delphi_methodHeading : id300
delphi_ident "0..1" --* "1..1" delphi_propertyList : id333
delphi_ident "0..1" --* "1..1" delphi_propertyInterface : id342
delphi_ident "0..1" --* "1..1" delphi_qualId : id396
delphi_qualId "0..1" --* "1..1" delphi_typeId : id402
delphi_ident "0..1" --* "1..1" delphi_recordConstExpr : id405
delphi_exportsItem "1..1" *-- "0..1" delphi_ident : id48
delphi_constantDecl "1..1" *-- "0..1" delphi_ident : id56
delphi_ident "0..1" --* "1..1" delphi_typeDecl : id67
delphi_ident "0..1" --* "1..1" delphi_recordFieldConstant : id86
delphi_fieldDecl "1..1" *-- "0..1" delphi_identList : idList120
delphi_identList "0..1" --* "1..1" delphi_varDecl : idList150
delphi_identList "0..1" --* "1..1" delphi_usesClause : idList20
delphi_identList "0..9999" --* "1..1" delphi_propertyParameterList : idList345
delphi_identList "0..1" --* "1..1" delphi_interfaceHeritage : idList379
delphi_identList "0..9999" --* "1..1" delphi_requiresClause : idList382
delphi_containsClause "1..1" *-- "0..9999" delphi_identList : idList385
delphi_identList "0..1" --* "1..1" delphi_parameterList : idList439
delphi_ident "0..9999" --* "1..1" delphi_identList : ids391
delphi_ident "0..1" --* "1..1" delphi_parameterSimple : if_441
delphi_propertySpecifiers "1..1" *-- "0..1" delphi_typeId : implement369
delphi_implementationSection "0..1" --* "1..1" delphi_unit : implementationSect7
delphi_constExpr "0..1" --* "1..1" delphi_propertySpecifiers : index351
delphi_constExpr "0..1" --* "1..1" delphi_parameterSimple : initExp443
delphi_initSection "0..1" --* "1..1" delphi_unit : initSect9
delphi_propertyInterface "0..1" --* "1..1" delphi_propertyList : interface336
delphi_interfaceDecl "0..9999" --* "1..1" delphi_interfaceSection : interfaceDecl26
delphi_interfaceSection "0..1" --* "1..1" delphi_unit : interfaceSect6
delphi_exportsItem "0..9999" --* "1..1" delphi_exportsStmt : items52
delphi_caseLabel "0..9999" --* "1..1" delphi_caseSelector : labels222
delphi_expression "0..1" --* "1..1" delphi_setElement : last195
delphi_caseLabel "1..1" *-- "0..1" delphi_constExpr : last230
delphi_constExpr "0..1" --* "1..1" delphi_subrangeType : last96
delphi_expression "0..1" --* "1..1" delphi_relExp : left410
delphi_addExp "1..1" *-- "0..1" delphi_simpleExpression : left416
delphi_multExp "1..1" *-- "0..1" delphi_term : left422
delphi_constExpr "0..1" --* "1..1" delphi_enumeratedTypeElement : literalExp103
delphi_constExpr "0..1" --* "1..1" delphi_directive : messageExp284
delphi_methodList "0..1" --* "1..1" delphi_objectType : methodList290
delphi_classMethodList "0..1" --* "1..1" delphi_classType : methodList315
delphi_classMethod "1..1" *-- "0..1" delphi_methodList : methodList326
delphi_classMethodList "0..1" --* "1..1" delphi_interfaceType : methodList373
delphi_classMethod "0..9999" --* "1..1" delphi_classMethodList : metod324
delphi_mulOp "0..1" --* "1..1" delphi_multExp : multOp424
delphi_expression "0..1" --* "1..1" delphi_factor : nestedExp168
delphi_ordinalType "0..1" --* "1..1" delphi_setType : ordinal140
delphi_arrayType "1..1" *-- "0..9999" delphi_ordinalType : ordinalTyp109
delphi_arrayType "1..1" *-- "0..9999" delphi_ordinalType : ordinalType108
delphi_library "1..1" *-- "0..1" delphi_programBlock : pBlock14
delphi_procedureHeading "0..1" --* "1..1" delphi_procedureType : pHeading144
delphi_exportedHeading "1..1" *-- "0..1" delphi_procedureHeading : pHeading28
delphi_formalParm "1..1" *-- "0..1" delphi_parameter : param279
delphi_propertyInterface "1..1" *-- "0..1" delphi_propertyParameterList : paramList340
delphi_formalParameters "1..1" *-- "0..9999" delphi_formalParm : params278
delphi_identList "0..1" --* "1..1" delphi_program : paramsList3
delphi_designatorPart "0..1" --* "1..1" delphi_designatorSubPart : part183
delphi_classPropertyList "0..1" --* "1..1" delphi_classType : propList317
delphi_classProperty "1..1" *-- "0..1" delphi_propertyList : propList331
delphi_classPropertyList "0..9999" --* "1..1" delphi_interfaceType : propList376
delphi_classProperty "0..9999" --* "1..1" delphi_classPropertyList : property329
delphi_ident "0..1" --* "1..1" delphi_propertySpecifiers : readId354
delphi_recVariant "0..9999" --* "1..1" delphi_variantSection : recVariants132
delphi_recordConstant "0..1" --* "1..1" delphi_typedConstant : record79
delphi_recordConstant "1..1" *-- "0..9999" delphi_recordFieldConstant : recordField84
delphi_relExp "1..1" *-- "0..1" delphi_relOp : relOp412
delphi_packageDecl "1..1" *-- "0..1" delphi_requiresClause : requires11
delphi_designatorPart "1..1" *-- "0..1" delphi_reservedWord : reservedWord188
delphi_ReservedId "1..1" *-- "0..1" delphi_reservedWord : reservedWord446
delphi_restrictedType "0..1" --* "1..1" delphi_typeDecl : restrictedType72
delphi_relExp "1..1" *-- "0..1" delphi_simpleExpression : right414
delphi_addExp "1..1" *-- "0..1" delphi_term : right420
delphi_factor "0..1" --* "1..1" delphi_multExp : right426
delphi_factor "1..1" *-- "0..1" delphi_setConstructor : setConstuctor173
delphi_propertyList "1..1" *-- "0..1" delphi_propertySpecifiers : specifiers338
delphi_compoundStmt "1..1" *-- "0..1" delphi_stmtList : stamtList204
delphi_statement "1..1" *-- "0..1" delphi_unlabelledStatement : statement202
delphi_statement "0..9999" --* "1..1" delphi_stmtList : statments201
delphi_caseSelector "1..1" *-- "0..1" delphi_statement : stmt224
delphi_loopStmt "1..1" *-- "0..1" delphi_statement : stmt233
delphi_statement "0..1" --* "1..1" delphi_withStmt : stmt244
delphi_stmtList "0..1" --* "1..1" delphi_tryStmt : stmtList247
delphi_initSection "1..1" *-- "0..1" delphi_stmtList : stmtList306
delphi_constExpr "0..1" --* "1..1" delphi_propertySpecifiers : storeExp363
delphi_ident "0..1" --* "1..1" delphi_propertySpecifiers : storeId360
delphi_designator "1..1" *-- "0..1" delphi_designatorSubPart : subpart178
delphi_ifStmt "1..1" *-- "0..1" delphi_statement : then209
delphi_arrayType "1..1" *-- "0..1" delphi_type : type112
delphi_fieldDecl "1..1" *-- "0..1" delphi_type : type123
delphi_type "0..1" --* "1..1" delphi_varDecl : type153
delphi_exceptionBlock "1..1" *-- "0..9999" delphi_type : type257
delphi_functionHeading "1..1" *-- "0..1" delphi_type : type275
delphi_parameter "1..1" *-- "0..1" delphi_type : type281
delphi_identList "1..1" *-- "0..1" delphi_type : type388
delphi_type "0..1" --* "1..1" delphi_typeDecl : type70
delphi_typeDecl "0..9999" --* "1..1" delphi_typeSection : typeDecl66
delphi_typeId "0..1" --* "1..1" delphi_variantSection : typeRef129
delphi_fileType "1..1" *-- "0..1" delphi_typeId : typeRef142
delphi_factor "1..1" *-- "0..1" delphi_typeId : typeRef175
delphi_propertyParameterList "1..1" *-- "0..9999" delphi_typeId : typeRef348
delphi_constantDecl "1..1" *-- "0..1" delphi_typeId : typeRef62
delphi_classRefType "1..1" *-- "0..1" delphi_typeId : typeRef92
delphi_arrayConstant "1..1" *-- "0..1" delphi_typedConstant : typedConstant81
delphi_recordFieldConstant "1..1" *-- "0..1" delphi_typedConstant : typedConstant89
delphi_constantDecl "1..1" *-- "0..1" delphi_typedConstant : typedConstat64
delphi_qualId "1..1" *-- "0..1" delphi_unitId : unitId394
delphi_typeId "1..1" *-- "0..1" delphi_unitId : unitId399
delphi_programBlock "1..1" *-- "0..1" delphi_usesClause : uses16
delphi_interfaceSection "1..1" *-- "0..1" delphi_usesClause : uses23
delphi_implementationSection "1..1" *-- "0..1" delphi_usesClause : uses33
delphi_varDecl "0..9999" --* "1..1" delphi_varSection : varDecls149
delphi_forStmt "1..1" *-- "0..1" delphi_qualId : varId238
delphi_expression "0..1" --* "1..1" delphi_forStmt : varInit239
delphi_fieldList "1..1" *-- "0..1" delphi_variantSection : variantSect118
delphi_identList "0..1" --* "1..1" delphi_withStmt : vars242
delphi_ident "0..1" --* "1..1" delphi_propertySpecifiers : writeId357
@enduml