@startuml
class EClassifier {
}
class EDataType {
}
class EModelElement {
}
class ENamedElement {
}
class EObject {
}
class EStructuralFeature {
}
class ETypedElement {
}
class ecore_EAnnotation {
  + source : str
}
class ecore_EAttribute {
  + iD : bool
}
class ecore_EClass {
  + abstract : bool
  + interface : bool
  + getEStructuralFeature(ecore_featureName : str) : EStructuralFeature
  + getFeatureCount() : int
  + getFeatureID(ecore_feature : str) : int
  + isSuperTypeOf(ecore_someClass : str) : bool
}
abstract class ecore_EClassifier {
  + defaultValue : str
  + instanceClass : str
  + instanceClassName : str
  + instanceTypeName : str
  + getClassifierID() : int
  + isInstance(ecore_object : str) : bool
}
class ecore_EDataType {
  + serializable : bool
}
class ecore_EEnum {
  + getEEnumLiteral(ecore_value : str) : str
  + getEEnumLiteralByLiteral(ecore_literal : str) : str
}
class ecore_EEnumLiteral {
  + instance : str
  + literal : str
  + value : int
}
class ecore_EFactory {
  + convertToString(ecore_eDataType : str, ecore_instanceValue : str) : str
  + create(ecore_eClass : str) : str
  + createFromString(ecore_eDataType : str, ecore_literalValue : str) : str
}
class ecore_EGenericType {
}
abstract class ecore_EModelElement {
  + getEAnnotation(ecore_source : str) : str
}
abstract class ecore_ENamedElement {
  + name : str
}
class ecore_EObject {
  + eAllContents() : void
  + eClass() : str
  + eContainer() : EObject
  + eContainingFeature() : EStructuralFeature
  + eContainmentFeature() : str
  + eContents() : void
  + eCrossReferences() : void
  + eGet(ecore_feature : str, ecore_resolve : str) : str
  + eIsProxy() : bool
  + eIsSet(ecore_feature : str) : bool
  + eResource() : str
  + eSet(ecore_feature : str, ecore_newValue : str) : void
  + eUnset(ecore_feature : str) : void
}
class ecore_EOperation {
}
class ecore_EPackage {
  + nsPrefix : str
  + nsURI : str
  + getEClassifier(ecore_name : str) : EClassifier
}
class ecore_EParameter {
}
class ecore_EReference {
  + container : bool
  + containment : bool
  + resolveProxies : bool
}
class ecore_EStringToStringMapEntry {
  + key : str
  + value : str
}
abstract class ecore_EStructuralFeature {
  + changeable : bool
  + defaultValue : str
  + defaultValueLiteral : str
  + derived : bool
  + transient : bool
  + unsettable : bool
  + volatile : bool
  + getContainerClass() : void
  + getFeatureID() : int
}
class ecore_ETypeParameter {
}
abstract class ecore_ETypedElement {
  + lowerBound : int
  + many : bool
  + ordered : bool
  + required : bool
  + unique : bool
  + upperBound : int
}
abstract class ecore_Visitable {
}
EClassifier <|-- ecore_EClass
EClassifier <|-- ecore_EDataType
EDataType <|-- ecore_EEnum
EModelElement <|-- ecore_EAnnotation
EModelElement <|-- ecore_EFactory
EModelElement <|-- ecore_ENamedElement
ENamedElement <|-- ecore_EClassifier
ENamedElement <|-- ecore_EEnumLiteral
ENamedElement <|-- ecore_EPackage
ENamedElement <|-- ecore_ETypeParameter
ENamedElement <|-- ecore_ETypedElement
EObject <|-- ecore_EGenericType
EObject <|-- ecore_EModelElement
EStructuralFeature <|-- ecore_EAttribute
EStructuralFeature <|-- ecore_EReference
ETypedElement <|-- ecore_EOperation
ETypedElement <|-- ecore_EParameter
ETypedElement <|-- ecore_EStructuralFeature
ecore_EAnnotation "1..1" *-- "0..9999" ecore_EObject : contents3
ecore_EAnnotation "1..1" *-- "0..9999" ecore_EStringToStringMapEntry : details1
ecore_EAttribute "0..9999" -- "1..1" ecore_EClass : eAllAttributes11
ecore_EClass "1..1" -- "0..9999" ecore_EReference : eAllContainments22
ecore_EClass "1..1" -- "0..9999" ecore_EGenericType : eAllGenericSuperTypes39
ecore_EClass "1..1" -- "0..9999" ecore_EOperation : eAllOperations25
ecore_EClass "1..1" -- "0..9999" ecore_EReference : eAllReferences14
ecore_EClass "1..1" -- "0..9999" ecore_EStructuralFeature : eAllStructuralFeatures27
ecore_EClass "0..9999" -- "1..1" ecore_EClass : eAllSuperTypes30
ecore_EAnnotation "0..9999" --* "1..1" ecore_EModelElement : eAnnotations48
ecore_EAttribute "1..1" -- "1..1" ecore_EDataType : eAttributeType0
ecore_EAttribute "0..9999" -- "1..1" ecore_EClass : eAttributes19
ecore_EGenericType "0..9999" --* "1..1" ecore_ETypeParameter : eBounds105
ecore_EClassifier "0..1" -- "1..1" ecore_EGenericType : eClassifier102
ecore_EClassifier "0..9999" --* "1..1" ecore_EPackage : eClassifiers61
ecore_EClass "0..1" -- "1..1" ecore_EOperation : eContainingClass49
ecore_EClass "0..1" -- "1..1" ecore_EStructuralFeature : eContainingClass80
ecore_EEnum "0..1" -- "1..1" ecore_EEnumLiteral : eEnum45
ecore_EClassifier "0..9999" -- "1..1" ecore_EOperation : eExceptions54
ecore_EFactory "1..1" -- "1..1" ecore_EPackage : eFactoryInstance60
ecore_EGenericType "0..9999" --* "1..1" ecore_EOperation : eGenericExceptions57
ecore_EClass "1..1" *-- "0..9999" ecore_EGenericType : eGenericSuperTypes37
ecore_EGenericType "0..1" --* "1..1" ecore_ETypedElement : eGenericType84
ecore_EAttribute "0..1" -- "1..1" ecore_EClass : eIDAttribute32
ecore_EAttribute "0..9999" -- "1..1" ecore_EReference : eKeys77
ecore_EEnum "1..1" *-- "0..9999" ecore_EEnumLiteral : eLiterals44
ecore_EGenericType "0..1" --* "1..1" ecore_EGenericType : eLowerBound97
ecore_EAnnotation "1..1" -- "0..1" ecore_EModelElement : eModelElement2
ecore_EOperation "0..1" -- "1..1" ecore_EParameter : eOperation69
ecore_EClass "1..1" *-- "0..9999" ecore_EOperation : eOperations10
ecore_EReference "0..1" -- "1..1" ecore_EReference : eOpposite72
ecore_EClassifier "1..1" -- "0..1" ecore_EPackage : ePackage42
ecore_EFactory "1..1" -- "1..1" ecore_EPackage : ePackage46
ecore_EOperation "1..1" *-- "0..9999" ecore_EParameter : eParameters53
ecore_EClassifier "1..1" -- "1..1" ecore_EGenericType : eRawType93
ecore_EClass "1..1" -- "1..1" ecore_EReference : eReferenceType74
ecore_EClass "1..1" -- "0..9999" ecore_EReference : eReferences16
ecore_EClass "1..1" *-- "0..9999" ecore_EStructuralFeature : eStructuralFeatures35
ecore_EPackage "1..1" *-- "0..9999" ecore_EPackage : eSubpackages64
ecore_EPackage "1..1" -- "0..1" ecore_EPackage : eSuperPackage67
ecore_EClass "1..1" -- "0..9999" ecore_EClass : eSuperTypes9
ecore_EClassifier "0..1" -- "1..1" ecore_ETypedElement : eType82
ecore_EGenericType "0..9999" --* "1..1" ecore_EGenericType : eTypeArguments91
ecore_EGenericType "1..1" -- "0..1" ecore_ETypeParameter : eTypeParameter99
ecore_EClassifier "1..1" *-- "0..9999" ecore_ETypeParameter : eTypeParameters43
ecore_EOperation "1..1" *-- "0..9999" ecore_ETypeParameter : eTypeParameters50
ecore_EGenericType "0..1" --* "1..1" ecore_EGenericType : eUpperBound88
ecore_EAnnotation "1..1" -- "0..9999" ecore_EObject : references5
@enduml