@startuml
class Admin_Actor {
}
class Clark_Actor {
}
class Employee_Actor {
}
class Interface_Interface {
}
class Package2_Advances {
}
class Package2_Allowance {
  + Effectivedate : str
  + emp_id : str
  + id : int
}
class Package2_AllowanceTypes {
}
class Package2_Attendance {
  + empid : int
  + id : int
  + timein : str
  + timeout : str
}
class Package2_Deductions {
  + attribute : str
  + attribute2 : str
}
class Package2_Departments {
  + depname : str
  + id : int
}
class Package2_DeuctionTypes {
}
class Package2_EPF {
  + effectve_date : Package2_UserUpdates
  + id : int
  + precentage : int
}
class Package2_ETF {
}
class Package2_Employee {
  + depid : int
  + empid : str
  + id : str
  + leavegroup : int
  + post : str
  + shift : str
  + usergroup : int
}
class Package2_EmployeeParoll {
  + basicslaray : int
  + doyamount : int
  + empid : int
  + empid3 : int
  + epf : int
  + etf : str
  + id : int
  + otamount : int
}
class Package2_EmployeeSalary {
  + attribute : str
  + attribute2 : str
}
class Package2_Event {
}
class Package2_LeaveProfiles {
  + anual : int
  + casual : int
  + id : int
  + name : str
}
class Package2_Leave_Taken {
  + attribute : str
  + attribute2 : str
}
class Package2_Messages {
}
class Package2_OT_Requests {
  + EmpID : int
  + OTType : int
  + OtDay : date
  + id : int
}
class Package2_Posts {
  + attribute2 : str
  + id : int
}
class Package2_Shifts {
  + endtime : str
  + id : str
  + shiftaname : str
  + starttime : str
}
class Package2_UserUpdates {
}
class Package2_User_Permissions {
  + attribute : str
  + attribute2 : str
}
class Package2_User_groups {
  + attribute : str
  + attribute2 : str
  + attribute3 : str
}
class Package2_Users {
  + email : int
  + firstname : int
  + id : int
  + lastname : int
  + password : int
}
class Package_Advances {
}
class Package_Allowance {
  + Effectivedate : str
  + emp_id : str
  + id : int
}
class Package_AllowanceTypes {
}
class Package_Attendance {
  + empid : int
  + id : int
  + timein : str
  + timeout : str
}
class Package_Deductions {
  + attribute : str
  + attribute2 : str
}
class Package_Departments {
  + id : int
}
class Package_DeuctionTypes {
}
class Package_EPF {
  + effectve_date : Package_UserUpdates
  + id : int
  + precentage : int
}
class Package_ETF {
}
class Package_Employee {
  + depid : int
  + empid : str
  + id : str
  + leavegroup : int
  + post : str
  + shift : str
  + usergroup : int
}
class Package_EmployeeParoll {
  + attribute : str
  + attribute2 : str
}
class Package_EmployeeSalary {
  + attribute : str
  + attribute2 : str
}
class Package_Event {
}
class Package_LeaveProfiles {
  + attribute : str
  + attribute2 : str
}
class Package_Leave_Taken {
  + attribute : str
  + attribute2 : str
}
class Package_Messages {
}
class Package_OT_Requests {
  + EmpID : int
  + OTType : int
  + OtDay : date
  + id : int
}
class Package_Posts {
  + attribute : str
  + attribute2 : str
}
class Package_Shifts {
  + attribute : str
  + attribute2 : str
}
class Package_UserUpdates {
}
class Package_User_Permissions {
  + attribute : str
  + attribute2 : str
}
class Package_User_groups {
  + attribute : str
  + attribute2 : str
  + attribute3 : str
}
class Package_Users {
  + email : int
  + firstname : int
  + id : int
  + lastname : int
  + password : int
}
class Presentation_StaffUI {
}
class Use_Case_Diagram_for_Proposed_System_Accept_Leave_UseCase {
}
class Use_Case_Diagram_for_Proposed_System_Add_Employee_Time_Records_UseCase {
}
class Use_Case_Diagram_for_Proposed_System_Add_Employee_profile_UseCase {
}
class Use_Case_Diagram_for_Proposed_System_Add_New_department_UseCase {
}
class Use_Case_Diagram_for_Proposed_System_Add_new_company_Events_UseCase {
}
class Use_Case_Diagram_for_Proposed_System_Approve_Employee_Pay_sheets_UseCase {
}
class Use_Case_Diagram_for_Proposed_System_Generate_Paysheet_UseCase {
}
class Use_Case_Diagram_for_Proposed_System_Issue_and_Check_Appraislas_UseCase {
}
class Use_Case_Diagram_for_Proposed_System_Reject_Leave_UseCase {
}
class Use_Case_Diagram_for_Proposed_System_Request_Leaves_UseCase {
}
class Use_Case_Diagram_for_Proposed_System_Request_Loan_and_advances_UseCase {
}
class Use_Case_Diagram_for_Proposed_System_Set_Leave_status_UseCase {
}
class Use_Case_Diagram_for_Proposed_System_Set_advances_status_UseCase {
}
class Use_Case_Diagram_for_Proposed_System_Update_Leave_Balance_UseCase {
}
class Use_Case_Diagram_for_Proposed_System_View_Employee_Time_Records_UseCase {
}
class Use_Case_Diagram_for_Proposed_System_View_Employee_profiles_UseCase {
}
class Use_Case_Diagram_for_Proposed_System_View_Leave_status_UseCase {
}
class Use_Case_Diagram_for_Proposed_System_View_Pay_Sheet_History_UseCase {
}
class Use_Case_Diagram_for_Proposed_System_View_Personal_Salary_History_UseCase {
}
class Use_Case_Diagram_for_Proposed_System_View_Personal_Time_Records_UseCase {
}
class Use_Case_Diagram_for_Proposed_System_View_Reports_UseCase {
}
class Use_Case_Diagram_for_Proposed_System_View_Reports_UseCase1 {
}
class Use_Case_Diagram_for_Proposed_System_View_leave_Rquest_UseCase {
}
class Use_Case_Diagram_for_Proposed_System_View_personal_detais_UseCase {
}
enum date {
}
enum ot_Type {
}
Employee_Actor "0..1" -- "0..1" Use_Case_Diagram_for_Proposed_System_View_Personal_Salary_History_UseCase : Actor_UseCase
Employee_Actor "0..1" -- "0..1" Use_Case_Diagram_for_Proposed_System_View_Leave_status_UseCase : Actor_UseCase2
Employee_Actor "0..1" -- "0..1" Use_Case_Diagram_for_Proposed_System_View_Personal_Time_Records_UseCase : Actor_UseCase3
Employee_Actor "0..1" -- "0..1" Use_Case_Diagram_for_Proposed_System_View_Reports_UseCase : Actor_UseCase4
Employee_Actor "0..1" -- "0..1" Use_Case_Diagram_for_Proposed_System_Request_Leaves_UseCase : Actor_UseCase5
Admin_Actor "0..1" -- "0..1" Use_Case_Diagram_for_Proposed_System_Approve_Employee_Pay_sheets_UseCase : Admin_Approve_Employee_Pay_sheets
Admin_Actor "0..1" -- "0..1" Use_Case_Diagram_for_Proposed_System_Issue_and_Check_Appraislas_UseCase : Admin_Issue_and_Check_Appraislas
Admin_Actor "0..1" -- "0..1" Use_Case_Diagram_for_Proposed_System_Set_Leave_status_UseCase : Admin_Set_Leave_status
Admin_Actor "0..1" -- "0..1" Use_Case_Diagram_for_Proposed_System_Set_advances_status_UseCase : Admin_Set_advances_status
Admin_Actor "0..1" -- "0..1" Use_Case_Diagram_for_Proposed_System_View_Employee_Time_Records_UseCase : Admin_View_Employee_Time_Records
Admin_Actor "0..1" -- "0..1" Use_Case_Diagram_for_Proposed_System_View_Pay_Sheet_History_UseCase : Admin_View_Pay_Sheet_History
Admin_Actor "0..1" -- "0..1" Use_Case_Diagram_for_Proposed_System_View_leave_Rquest_UseCase : Admin_View_leave_Rquest
Package_Allowance "1..1" -- "0..9999" Package_Employee : Allowance_Employee
Package2_Allowance "1..1" -- "0..9999" Package2_Employee : Allowance_Employee1
Package_Attendance "0..9999" -- "1..1" Package_Employee : Attendance_Employee
Package2_Attendance "0..9999" -- "1..1" Package2_Employee : Attendance_Employee1
Clark_Actor "0..1" -- "0..1" Use_Case_Diagram_for_Proposed_System_Add_Employee_Time_Records_UseCase : Clark_Add_Employee_Time_Records
Clark_Actor "0..1" -- "0..1" Use_Case_Diagram_for_Proposed_System_Add_Employee_profile_UseCase : Clark_Add_Employee_profile
Clark_Actor "0..1" -- "0..1" Use_Case_Diagram_for_Proposed_System_Add_New_department_UseCase : Clark_Add_New_department
Clark_Actor "0..1" -- "0..1" Use_Case_Diagram_for_Proposed_System_Add_new_company_Events_UseCase : Clark_Add_new_company_Events
Clark_Actor "0..1" -- "0..1" Use_Case_Diagram_for_Proposed_System_Generate_Paysheet_UseCase : Clark_Generate_Paysheet
Clark_Actor "0..1" -- "0..1" Use_Case_Diagram_for_Proposed_System_View_Employee_profiles_UseCase : Clark_View_Employee_profiles
Clark_Actor "0..1" -- "0..1" Use_Case_Diagram_for_Proposed_System_View_Reports_UseCase1 : Clark_View_Reports
Package_Departments "1..1" -- "1..1" Package_Employee : Departments_Employee
Package2_Departments "1..1" -- "1..1" Package2_Employee : Departments_Employee1
Package_Advances "0..9999" -- "1..1" Package_Employee : Employee_Advances
Package2_Advances "0..9999" -- "1..1" Package2_Employee : Employee_Advances1
Package_Employee "1..9999" -- "1..9999" Package_EmployeeParoll : Employee_EmployeeParoll
Package2_Employee "1..9999" -- "1..9999" Package2_EmployeeParoll : Employee_EmployeeParoll1
Package_Employee "0..1" -- "0..9999" Package_EmployeeSalary : Employee_EmployeeSalary
Package2_Employee "0..1" -- "0..9999" Package2_EmployeeSalary : Employee_EmployeeSalary1
Package_Employee "1..1" -- "0..1" Package_LeaveProfiles : Employee_LeaveProfiles
Package2_Employee "1..1" -- "0..1" Package2_LeaveProfiles : Employee_LeaveProfiles1
Package_Employee "0..1" -- "1..9999" Package_Leave_Taken : Employee_Leave_Taken
Package2_Employee "0..1" -- "1..9999" Package2_Leave_Taken : Employee_Leave_Taken1
Package_Employee "1..1" -- "0..9999" Package_Messages : Employee_Messages
Package2_Employee "1..1" -- "0..9999" Package2_Messages : Employee_Messages1
Package_Employee "1..1" -- "0..9999" Package_OT_Requests : Employee_OT_Requests
Package2_Employee "1..1" -- "0..9999" Package2_OT_Requests : Employee_OT_Requests1
Package_Employee "1..1" -- "1..1" Package_Posts : Employee_Posts
Package2_Employee "1..1" -- "1..1" Package2_Posts : Employee_Posts1
Package_Employee "0..9999" -- "1..1" Package_Shifts : Employee_Shifts
Package2_Employee "0..9999" -- "1..1" Package2_Shifts : Employee_Shifts1
Package_Employee "0..9999" -- "1..1" Package_User_groups : Employee_User_groups
Package2_Employee "0..9999" -- "1..1" Package2_User_groups : Employee_User_groups1
Employee_Actor "0..1" -- "0..1" Use_Case_Diagram_for_Proposed_System_Request_Loan_and_advances_UseCase : Request_Loan_and_advances_Actor
Package_User_Permissions "1..1" -- "1..1" Package_User_groups : User_groups_User_Permissions
Package2_User_Permissions "1..1" -- "1..1" Package2_User_groups : User_groups_User_Permissions1
Package_Employee "1..1" -- "1..1" Package_Users : Users_Employee
Package2_Employee "1..1" -- "1..1" Package2_Users : Users_Employee1
Admin_Actor "0..1" -- "0..1" Use_Case_Diagram_for_Proposed_System_View_Reports_UseCase : View_Reports_Admin
Employee_Actor "0..1" -- "0..1" Use_Case_Diagram_for_Proposed_System_View_personal_detais_UseCase : View_personal_detais_Actor
@enduml