@startuml
class AbstractVariable {
}
class AnnotateableElement {
}
class Annotation {
}
class BinaryOperator {
}
class Class {
}
class ComplexSymbol {
}
class Concept {
}
class Construct {
}
class ConstructiveExtension {
}
class ConstructiveExtensionAtContentExtensionPoint {
}
class ElementAccess {
}
class ElementarySymbol {
}
class ExpansionPart {
}
class Expression {
}
class ExtensibleElement {
}
class L1Expr {
}
class L1SyntaxExpression {
}
class L2Expr {
}
class L2SyntaxExpression {
}
class L3Expr {
}
class L4Expr {
}
class L5Expr {
}
class L6Expr {
}
class L7Expr {
}
class L8Expr {
}
class LocalScope {
}
class LoopStatement {
}
class Module {
}
class NamedElement {
}
class PlainSymbolReference {
}
class PredefinedId {
}
class PrimitiveType {
}
class QuotedCode {
}
class SimpleStatement {
}
class Statement {
}
class SyntaxExpression {
}
class SyntaxSymbolClassifier {
}
class Type {
}
class TypedElement {
}
class UnaryOperator {
}
class Variable {
}
class VariableAccess {
}
abstract class dbl_AbstractVariable {
}
class dbl_ActivateObject {
  + priority : int
}
class dbl_ActiveLiteral {
}
class dbl_Advance {
}
class dbl_And {
}
class dbl_AnnotateableElement {
}
class dbl_Annotation {
}
class dbl_AnnotationItem {
  + key : str
  + value : str
}
class dbl_AnnotationLiteral {
}
class dbl_ArrayDimension {
}
class dbl_Assignment {
}
abstract class dbl_BinaryOperator {
}
class dbl_BoolType {
}
class dbl_BreakStatement {
}
class dbl_CallPart {
}
class dbl_Cast {
}
class dbl_Class {
  + active : bool
}
class dbl_ClassContentExtension {
}
class dbl_CodeQuoteExpression {
}
class dbl_ComplexSymbol {
}
class dbl_Concept {
}
class dbl_Construct {
}
class dbl_ConstructiveExtension {
}
abstract class dbl_ConstructiveExtensionAtContentExtensionPoint {
}
class dbl_Constructor {
}
class dbl_ContinueStatement {
}
class dbl_CreateIdStatement {
}
class dbl_CreateObject {
}
class dbl_Div {
}
class dbl_DoubleLiteral {
  + value : float
}
class dbl_DoubleType {
}
abstract class dbl_ElementAccess {
}
abstract class dbl_ElementarySymbol {
}
class dbl_Equal {
}
class dbl_ExpandExpr {
}
class dbl_ExpandExpression {
}
class dbl_ExpandStatement {
}
class dbl_ExpandTextPart {
  + text : str
}
class dbl_ExpandVariablePart {
}
abstract class dbl_ExpansionPart {
}
class dbl_ExpansionStatement {
  + classContext : bool
  + functionContext : bool
  + variableContext : bool
}
class dbl_Expression {
}
class dbl_ExtensibleElement {
  + concreteSyntax : str
  + instanceOfExtensionDefinition : bool
}
class dbl_Extension {
}
class dbl_ExtensionSemantics {
}
class dbl_FalseLiteral {
}
class dbl_ForStatement {
}
class dbl_Function {
  + abstract : bool
  + class_ : bool
  + detached : bool
}
class dbl_FunctionCall {
}
class dbl_Greater {
}
class dbl_GreaterEqual {
}
class dbl_IdExpr {
}
class dbl_IdSymbol {
}
class dbl_IfStatement {
}
class dbl_Import {
  + file : str
}
class dbl_InstanceOf {
}
class dbl_IntLiteral {
  + value : int
}
class dbl_IntSymbol {
}
class dbl_IntType {
}
class dbl_Keyword {
  + keyword : str
}
class dbl_L1Expr {
}
class dbl_L1SyntaxExpression {
}
class dbl_L2Expr {
}
class dbl_L2SyntaxExpression {
}
class dbl_L3Expr {
}
class dbl_L3SyntaxExpression {
}
class dbl_L4Expr {
}
class dbl_L5Expr {
}
class dbl_L6Expr {
}
class dbl_L7Expr {
}
class dbl_L8Expr {
}
class dbl_L9Expr {
}
class dbl_Less {
}
class dbl_LessEqual {
}
class dbl_LocalScope {
}
class dbl_LocalScopeStatement {
}
class dbl_LoopStatement {
}
class dbl_MeLiteral {
}
class dbl_MetaAccess {
}
class dbl_MetaExpr {
}
class dbl_MetaLiteral {
}
class dbl_MetaSymbol {
}
class dbl_Minus {
}
class dbl_Mod {
}
class dbl_Model {
}
class dbl_Module {
}
class dbl_ModuleContentExtension {
}
class dbl_Mul {
}
class dbl_NamedElement {
  + name : str
}
class dbl_NativeBinding {
  + targetLanguage : str
  + targetType : str
}
class dbl_Neg {
}
class dbl_Not {
}
class dbl_NotEqual {
}
class dbl_NullLiteral {
}
class dbl_Or {
}
class dbl_Parameter {
}
class dbl_ParseExpr {
}
class dbl_Pattern {
  + top : bool
}
class dbl_PlainSymbolReference {
}
class dbl_Plus {
}
class dbl_PredefinedId {
}
abstract class dbl_PrimitiveType {
}
class dbl_Print {
}
class dbl_QuotedClassContent {
}
class dbl_QuotedCode {
}
class dbl_QuotedExpression {
}
class dbl_QuotedModuleContent {
}
class dbl_QuotedStatements {
}
class dbl_Reactivate {
}
class dbl_Return {
}
class dbl_SimpleStatement {
}
class dbl_SizeOfArray {
}
class dbl_Statement {
}
class dbl_StringLiteral {
  + value : str
}
class dbl_StringSymbol {
}
class dbl_StringType {
}
class dbl_StructuralSymbolReference {
  + composite : bool
  + globalScopedReference : bool
  + list : bool
  + localScopedReference : bool
}
class dbl_SuperClassSpecification {
}
class dbl_SuperLiteral {
}
class dbl_SwitchCase {
}
class dbl_SwitchStatement {
}
class dbl_SymbolSequence {
}
class dbl_SyntaxDefinition {
}
class dbl_SyntaxExpression {
}
class dbl_SyntaxSymbolClassifier {
}
class dbl_TargetStatement {
}
class dbl_Terminate {
}
class dbl_TestStatement {
  + value : int
}
class dbl_TimeLiteral {
}
class dbl_TrueLiteral {
}
abstract class dbl_Type {
}
class dbl_TypeAccess {
}
class dbl_TypeLiteral {
}
abstract class dbl_TypedElement {
}
abstract class dbl_UnaryOperator {
}
class dbl_Variable {
  + class_ : bool
  + control : bool
}
class dbl_VariableAccess {
}
class dbl_VoidType {
}
class dbl_Wait {
}
class dbl_WaitUntil {
}
class dbl_WhileStatement {
}
class dbl_Yield {
}
class dbl_YieldTo {
}
AbstractVariable <|-- dbl_Parameter
AbstractVariable <|-- dbl_Variable
AnnotateableElement <|-- dbl_AbstractVariable
AnnotateableElement <|-- dbl_Class
AnnotateableElement <|-- dbl_Statement
Annotation <|-- dbl_AnnotationLiteral
BinaryOperator <|-- dbl_And
BinaryOperator <|-- dbl_Div
BinaryOperator <|-- dbl_Equal
BinaryOperator <|-- dbl_Greater
BinaryOperator <|-- dbl_GreaterEqual
BinaryOperator <|-- dbl_InstanceOf
BinaryOperator <|-- dbl_Less
BinaryOperator <|-- dbl_LessEqual
BinaryOperator <|-- dbl_Minus
BinaryOperator <|-- dbl_Mod
BinaryOperator <|-- dbl_Mul
BinaryOperator <|-- dbl_NotEqual
BinaryOperator <|-- dbl_Or
BinaryOperator <|-- dbl_Plus
Class <|-- dbl_QuotedClassContent
ComplexSymbol <|-- dbl_Concept
ComplexSymbol <|-- dbl_MetaSymbol
Concept <|-- dbl_Class
Concept <|-- dbl_Extension
Construct <|-- dbl_Class
Construct <|-- dbl_ExtensibleElement
Construct <|-- dbl_Module
ConstructiveExtension <|-- dbl_ClassContentExtension
ConstructiveExtension <|-- dbl_ModuleContentExtension
ConstructiveExtensionAtContentExtensionPoint <|-- dbl_Class
ConstructiveExtensionAtContentExtensionPoint <|-- dbl_Module
ElementAccess <|-- dbl_TypeAccess
ElementAccess <|-- dbl_VariableAccess
ElementarySymbol <|-- dbl_IdSymbol
ElementarySymbol <|-- dbl_IntSymbol
ElementarySymbol <|-- dbl_Keyword
ElementarySymbol <|-- dbl_StringSymbol
ExpansionPart <|-- dbl_ExpandTextPart
ExpansionPart <|-- dbl_ExpandVariablePart
Expression <|-- dbl_BinaryOperator
Expression <|-- dbl_CodeQuoteExpression
Expression <|-- dbl_ElementAccess
Expression <|-- dbl_ExpandExpr
Expression <|-- dbl_ExpandExpression
Expression <|-- dbl_L1Expr
Expression <|-- dbl_L2Expr
Expression <|-- dbl_L3Expr
Expression <|-- dbl_L4Expr
Expression <|-- dbl_L5Expr
Expression <|-- dbl_L6Expr
Expression <|-- dbl_L7Expr
Expression <|-- dbl_L8Expr
Expression <|-- dbl_L9Expr
Expression <|-- dbl_MetaExpr
Expression <|-- dbl_ParseExpr
Expression <|-- dbl_UnaryOperator
ExtensibleElement <|-- dbl_ConstructiveExtension
ExtensibleElement <|-- dbl_Expression
ExtensibleElement <|-- dbl_Extension
ExtensibleElement <|-- dbl_ExtensionSemantics
ExtensibleElement <|-- dbl_Statement
ExtensibleElement <|-- dbl_SyntaxDefinition
ExtensibleElement <|-- dbl_SyntaxSymbolClassifier
L1Expr <|-- dbl_ActiveLiteral
L1Expr <|-- dbl_CreateObject
L1Expr <|-- dbl_DoubleLiteral
L1Expr <|-- dbl_FalseLiteral
L1Expr <|-- dbl_IdExpr
L1Expr <|-- dbl_IntLiteral
L1Expr <|-- dbl_NullLiteral
L1Expr <|-- dbl_StringLiteral
L1Expr <|-- dbl_TimeLiteral
L1Expr <|-- dbl_TrueLiteral
L1SyntaxExpression <|-- dbl_PlainSymbolReference
L2Expr <|-- dbl_Cast
L2Expr <|-- dbl_Neg
L2Expr <|-- dbl_Not
L2SyntaxExpression <|-- dbl_SymbolSequence
L3Expr <|-- dbl_Div
L3Expr <|-- dbl_Mod
L3Expr <|-- dbl_Mul
L4Expr <|-- dbl_Minus
L4Expr <|-- dbl_Plus
L5Expr <|-- dbl_Greater
L5Expr <|-- dbl_GreaterEqual
L5Expr <|-- dbl_InstanceOf
L5Expr <|-- dbl_Less
L5Expr <|-- dbl_LessEqual
L6Expr <|-- dbl_Equal
L6Expr <|-- dbl_NotEqual
L7Expr <|-- dbl_And
L8Expr <|-- dbl_Or
LocalScope <|-- dbl_Constructor
LocalScope <|-- dbl_ExtensionSemantics
LocalScope <|-- dbl_ForStatement
LocalScope <|-- dbl_Function
LocalScope <|-- dbl_LocalScopeStatement
LoopStatement <|-- dbl_ForStatement
LoopStatement <|-- dbl_WhileStatement
Module <|-- dbl_QuotedModuleContent
NamedElement <|-- dbl_AbstractVariable
NamedElement <|-- dbl_Annotation
NamedElement <|-- dbl_Class
NamedElement <|-- dbl_ExtensibleElement
NamedElement <|-- dbl_Function
NamedElement <|-- dbl_MetaSymbol
NamedElement <|-- dbl_Module
NamedElement <|-- dbl_Pattern
NamedElement <|-- dbl_StructuralSymbolReference
NamedElement <|-- dbl_SyntaxSymbolClassifier
PlainSymbolReference <|-- dbl_StructuralSymbolReference
PredefinedId <|-- dbl_AnnotationLiteral
PredefinedId <|-- dbl_MeLiteral
PredefinedId <|-- dbl_MetaLiteral
PredefinedId <|-- dbl_SizeOfArray
PredefinedId <|-- dbl_SuperLiteral
PredefinedId <|-- dbl_TypeLiteral
PrimitiveType <|-- dbl_BoolType
PrimitiveType <|-- dbl_DoubleType
PrimitiveType <|-- dbl_IntType
PrimitiveType <|-- dbl_StringType
PrimitiveType <|-- dbl_VoidType
QuotedCode <|-- dbl_QuotedClassContent
QuotedCode <|-- dbl_QuotedExpression
QuotedCode <|-- dbl_QuotedModuleContent
QuotedCode <|-- dbl_QuotedStatements
SimpleStatement <|-- dbl_ActivateObject
SimpleStatement <|-- dbl_Advance
SimpleStatement <|-- dbl_Assignment
SimpleStatement <|-- dbl_BreakStatement
SimpleStatement <|-- dbl_ContinueStatement
SimpleStatement <|-- dbl_ExpansionStatement
SimpleStatement <|-- dbl_FunctionCall
SimpleStatement <|-- dbl_LocalScopeStatement
SimpleStatement <|-- dbl_Print
SimpleStatement <|-- dbl_Reactivate
SimpleStatement <|-- dbl_Return
SimpleStatement <|-- dbl_SwitchStatement
SimpleStatement <|-- dbl_TargetStatement
SimpleStatement <|-- dbl_Terminate
SimpleStatement <|-- dbl_Variable
SimpleStatement <|-- dbl_Wait
SimpleStatement <|-- dbl_WaitUntil
SimpleStatement <|-- dbl_Yield
SimpleStatement <|-- dbl_YieldTo
Statement <|-- dbl_ExpandStatement
Statement <|-- dbl_IfStatement
Statement <|-- dbl_LoopStatement
Statement <|-- dbl_SimpleStatement
Statement <|-- dbl_TestStatement
SyntaxExpression <|-- dbl_L1SyntaxExpression
SyntaxExpression <|-- dbl_L2SyntaxExpression
SyntaxExpression <|-- dbl_L3SyntaxExpression
SyntaxSymbolClassifier <|-- dbl_ComplexSymbol
SyntaxSymbolClassifier <|-- dbl_ElementarySymbol
Type <|-- dbl_Class
Type <|-- dbl_PrimitiveType
TypedElement <|-- dbl_AbstractVariable
TypedElement <|-- dbl_Cast
TypedElement <|-- dbl_CreateObject
TypedElement <|-- dbl_Expression
TypedElement <|-- dbl_Function
UnaryOperator <|-- dbl_Cast
UnaryOperator <|-- dbl_Neg
UnaryOperator <|-- dbl_Not
Variable <|-- dbl_CreateIdStatement
VariableAccess <|-- dbl_MetaAccess
dbl_Class "1..1" *-- "0..1" dbl_LocalScope : actionsBlock49
dbl_AnnotateableElement "1..1" *-- "0..9999" dbl_Annotation : annotations18
dbl_ArrayDimension "0..9999" --* "1..1" dbl_Type : arrayDimensions21
dbl_Expression "0..9999" --* "1..1" dbl_IdExpr : arrayIndex132
dbl_Construct "1..1" --* "1..1" dbl_ParseExpr : astPart123
dbl_Class "1..1" *-- "0..9999" dbl_Variable : attributes43
dbl_Class "1..1" *-- "0..9999" dbl_NativeBinding : bindings37
dbl_Statement "0..9999" --* "1..1" dbl_SwitchCase : body110
dbl_Statement "1..1" --* "1..1" dbl_TargetStatement : body167
dbl_Pattern "1..1" *-- "1..1" dbl_Statement : body192
dbl_ForStatement "1..1" *-- "1..1" dbl_Statement : body92
dbl_Statement "1..1" --* "1..1" dbl_WhileStatement : body97
dbl_CallPart "1..1" *-- "0..9999" dbl_Expression : callArguments137
dbl_FunctionCall "1..1" *-- "1..1" dbl_IdExpr : callIdExpr61
dbl_CallPart "0..1" --* "1..1" dbl_IdExpr : callPart135
dbl_SwitchCase "0..9999" --* "1..1" dbl_SwitchStatement : cases102
dbl_Class "1..1" -- "1..1" dbl_SuperClassSpecification : class_32
dbl_Class "0..9999" --* "1..1" dbl_Module : classes7
dbl_PlainSymbolReference "1..1" -- "1..1" dbl_SyntaxSymbolClassifier : classifier158
dbl_IdExpr "0..1" --* "1..1" dbl_TypedElement : classifierType26
dbl_Expression "1..1" --* "1..1" dbl_WaitUntil : condition65
dbl_Expression "1..1" --* "1..1" dbl_IfStatement : condition77
dbl_Expression "1..1" --* "1..1" dbl_WhileStatement : condition95
dbl_Expression "0..9999" --* "1..1" dbl_SuperClassSpecification : constructorArguments34
dbl_Class "1..1" *-- "0..9999" dbl_Constructor : constructors42
dbl_ConstructiveExtension "0..9999" --* "1..1" dbl_ConstructiveExtensionAtContentExtensionPoint : contentExtensions20
dbl_Parameter "1..1" --* "1..1" dbl_Pattern : context190
dbl_SwitchCase "0..1" --* "1..1" dbl_SwitchStatement : defaultCase104
dbl_ExpansionStatement "1..1" *-- "0..1" dbl_IdExpr : differingContext169
dbl_Construct "1..1" *-- "1..1" dbl_ExpandExpr : expandExpr0
dbl_ExpandExpr "1..1" *-- "1..1" dbl_Expression : expr120
dbl_Expression "1..1" --* "1..1" dbl_MetaExpr : expr165
dbl_ExpandVariablePart "1..1" *-- "1..1" dbl_Expression : expr176
dbl_Expression "1..1" --* "1..1" dbl_QuotedExpression : expression186
dbl_ExpansionStatement "1..1" *-- "0..9999" dbl_Expression : exprs173
dbl_Concept "1..1" -- "1..1" dbl_Extension : extensionPoint142
dbl_ExtensionSemantics "0..9999" --* "1..1" dbl_Module : extensionSemantics11
dbl_Extension "0..9999" --* "1..1" dbl_Module : extensions9
dbl_IfStatement "1..1" *-- "0..1" dbl_Statement : falseCase81
dbl_Function "0..9999" --* "1..1" dbl_Module : functions13
dbl_ElementAccess "1..1" *-- "0..1" dbl_IdExpr : idExpr140
dbl_Import "0..9999" --* "1..1" dbl_Model : imports1
dbl_Assignment "1..1" --* "1..1" dbl_ForStatement : increment89
dbl_Expression "0..1" --* "1..1" dbl_Variable : initialValue54
dbl_Annotation "1..1" *-- "0..9999" dbl_AnnotationItem : items17
dbl_ExpandStatement "1..1" *-- "0..1" dbl_Expression : location182
dbl_ExpandExpression "1..1" *-- "1..1" dbl_Expression : metaObject178
dbl_ExpandStatement "1..1" *-- "1..1" dbl_Expression : metaObject180
dbl_Class "1..1" *-- "0..9999" dbl_Function : methods46
dbl_Import "1..1" -- "0..1" dbl_Model : model4
dbl_Model "1..1" *-- "0..9999" dbl_Module : modules2
dbl_Expression "1..1" --* "1..1" dbl_YieldTo : objectAccess67
dbl_Expression "1..1" --* "1..1" dbl_Reactivate : objectAccess69
dbl_ActivateObject "1..1" *-- "1..1" dbl_Expression : objectAccess71
dbl_BinaryOperator "1..1" *-- "1..1" dbl_Expression : op1113
dbl_Expression "1..1" --* "1..1" dbl_UnaryOperator : op118
dbl_BinaryOperator "1..1" *-- "1..1" dbl_Expression : op2115
dbl_Expression "0..9999" --* "1..1" dbl_Print : outputs75
dbl_PlainSymbolReference "1..1" *-- "0..1" dbl_SyntaxSymbolClassifier : ownedClassifier159
dbl_Class "1..1" -- "1..1" dbl_Constructor : owningClass53
dbl_Function "1..1" *-- "0..9999" dbl_Parameter : parameters30
dbl_Constructor "1..1" *-- "0..9999" dbl_Parameter : parameters51
dbl_IdExpr "0..1" --* "1..1" dbl_IdExpr : parentIdExpr126
dbl_ExpansionPart "0..9999" --* "1..1" dbl_ExpansionStatement : parts171
dbl_MetaSymbol "1..1" *-- "1..1" dbl_SyntaxExpression : possibleSyntax154
dbl_IdExpr "1..1" *-- "0..1" dbl_PredefinedId : predefinedId130
dbl_PrimitiveType "0..1" --* "1..1" dbl_TypedElement : primitiveType22
dbl_CodeQuoteExpression "1..1" *-- "1..1" dbl_QuotedCode : quotedCode185
dbl_PlainSymbolReference "1..1" -- "0..1" dbl_SyntaxSymbolClassifier : referencedClassifier162
dbl_IdExpr "1..1" -- "0..1" dbl_NamedElement : referencedElement128
dbl_SymbolSequence "1..1" *-- "0..9999" dbl_SyntaxExpression : sequence156
dbl_ArrayDimension "1..1" *-- "0..1" dbl_Expression : size28
dbl_MetaSymbol "1..1" -- "1..1" dbl_SyntaxDefinition : startSymbol149
dbl_QuotedStatements "1..1" *-- "0..9999" dbl_Statement : statements188
dbl_LocalScope "1..1" *-- "0..9999" dbl_Statement : statements84
dbl_Class "1..1" *-- "0..9999" dbl_SuperClassSpecification : superClasses39
dbl_MetaSymbol "0..9999" --* "1..1" dbl_SyntaxDefinition : symbols151
dbl_Extension "1..1" *-- "1..1" dbl_SyntaxDefinition : syntaxDefinition144
dbl_Extension "1..1" -- "1..1" dbl_ExtensionSemantics : syntaxDefinition146
dbl_Expression "1..1" --* "1..1" dbl_ForStatement : termination87
dbl_Advance "1..1" *-- "1..1" dbl_Expression : time73
dbl_IfStatement "1..1" *-- "1..1" dbl_Statement : trueCase79
dbl_ArrayDimension "0..9999" --* "1..1" dbl_TypedElement : typeArrayDimensions23
dbl_Expression "1..1" --* "1..1" dbl_SwitchCase : value107
dbl_Assignment "1..1" *-- "1..1" dbl_Expression : value58
dbl_Expression "1..1" --* "1..1" dbl_Return : value63
dbl_SwitchStatement "1..1" *-- "1..1" dbl_VariableAccess : variable100
dbl_Assignment "1..1" *-- "1..1" dbl_VariableAccess : variable57
dbl_Module "1..1" *-- "0..9999" dbl_Variable : variables15
@enduml