@startuml
class Node {
}
abstract class kiamaas_Node {
  + deep : int
  + height : int
}
class kiamaas_Num {
  + value : int
}
class kiamaas_Plus {
}
class kiamaas_Top {
}
Node <|-- kiamaas_Num
Node <|-- kiamaas_Plus
kiamaas_Node "0..1" --* "1..1" kiamaas_Plus : left1
kiamaas_Node "1..1" --* "1..1" kiamaas_Top : node0
kiamaas_Node "0..1" --* "1..1" kiamaas_Plus : right3
@enduml