@startuml
class BinaryOperatorCS {
}
class ExpCS {
}
class IndexExpCS {
}
class InfixedExpCS {
}
class ModuleElement {
}
class NavigatingArgExpCS {
}
class NavigatingExpCS {
}
class NavigatingExpCS_Base {
}
class OutPatternElement {
}
class PrefixedExpCS {
}
class PrimaryExpCS {
}
class PrimitiveLiteralExpCS {
}
class Statement {
}
class TypeExpCS {
}
class TypeLiteralCS {
}
class myAtl_ATLDefCS {
  + varName : str
}
class myAtl_ATLParameterCS {
  + varName : str
}
class myAtl_ATLType {
  + modelName : str
}
class myAtl_ActionBlock {
}
class myAtl_BinaryOperatorCS {
  + name : str
}
class myAtl_Binding {
  + propertyName : str
}
class myAtl_BindingStat {
  + propertyName : str
}
class myAtl_BooleanLiteralExpCS {
  + name : str
}
class myAtl_CalledRule {
}
class myAtl_CollectionTypeCS {
}
class myAtl_EObject {
}
class myAtl_ExpCS {
}
class myAtl_ForEachOutPatternElement {
}
class myAtl_Helper {
}
class myAtl_IfExpCS {
}
class myAtl_InPattern {
}
class myAtl_InPatternElement {
  + varName : str
}
class myAtl_IndexExpCS {
}
class myAtl_InfixExpCS {
}
class myAtl_InfixOperatorCS {
}
class myAtl_InfixedExpCS {
}
class myAtl_InvalidLiteralExpCS {
}
class myAtl_LetExpCS {
}
class myAtl_LetVariableCS {
  + name : str
}
class myAtl_MatchedRule {
}
class myAtl_Module {
  + name : str
}
class myAtl_ModuleElement {
  + name : str
}
class myAtl_NameExpCS {
  + element : str
  + namespace : str
}
class myAtl_NavigatingArgCS {
}
class myAtl_NavigatingArgExpCS {
}
class myAtl_NavigatingBarArgCS {
  + prefix : str
}
class myAtl_NavigatingCommaArgCS {
  + prefix : str
}
class myAtl_NavigatingExpCS {
}
class myAtl_NavigatingExpCS_Base {
}
class myAtl_NavigatingSemiArgCS {
  + prefix : str
}
class myAtl_NavigationOperatorCS {
}
class myAtl_NestedExpCS {
}
class myAtl_NullLiteralExpCS {
}
class myAtl_NumberLiteralExpCS {
  + name : str
}
class myAtl_OutPattern {
}
class myAtl_OutPatternElement {
}
class myAtl_PrefixExpCS {
}
class myAtl_PrefixedExpCS {
}
class myAtl_PrimaryExpCS {
}
class myAtl_PrimitiveLiteralExpCS {
}
class myAtl_PrimitiveTypeCS {
}
class myAtl_QueryRule {
}
class myAtl_RuleVariableDeclaration {
  + varName : str
}
class myAtl_SelfExpCS {
}
class myAtl_SimpleOutPatternElement {
  + varName : str
}
class myAtl_Statement {
}
class myAtl_StringExpCs {
  + name : str
}
class myAtl_StringLiteralExpCS {
  + name : str
}
class myAtl_TupleLiteralExpCS {
}
class myAtl_TupleLiteralPartCS {
  + name : str
}
class myAtl_TupleTypeCS {
  + backtrack : str
}
class myAtl_TypeExpCS {
}
class myAtl_TypeLiteralCS {
  + name : str
}
class myAtl_TypeLiteralExpCS {
}
class myAtl_TypeNameExpCS {
  + element : str
  + namespace : str
}
class myAtl_UnaryOperatorCS {
  + name : str
}
class myAtl_UnlimitedNaturalLiteralExpCS {
}
class myAtl_tuplePartCS {
  + name : str
}
BinaryOperatorCS <|-- myAtl_InfixOperatorCS
BinaryOperatorCS <|-- myAtl_NavigationOperatorCS
ExpCS <|-- myAtl_InfixedExpCS
IndexExpCS <|-- myAtl_NameExpCS
InfixedExpCS <|-- myAtl_InfixExpCS
InfixedExpCS <|-- myAtl_PrefixedExpCS
ModuleElement <|-- myAtl_CalledRule
ModuleElement <|-- myAtl_Helper
ModuleElement <|-- myAtl_MatchedRule
ModuleElement <|-- myAtl_QueryRule
NavigatingArgExpCS <|-- myAtl_ExpCS
NavigatingExpCS <|-- myAtl_NavigatingExpCS_Base
NavigatingExpCS_Base <|-- myAtl_IndexExpCS
OutPatternElement <|-- myAtl_ForEachOutPatternElement
OutPatternElement <|-- myAtl_SimpleOutPatternElement
PrefixedExpCS <|-- myAtl_PrefixExpCS
PrefixedExpCS <|-- myAtl_PrimaryExpCS
PrimaryExpCS <|-- myAtl_IfExpCS
PrimaryExpCS <|-- myAtl_LetExpCS
PrimaryExpCS <|-- myAtl_NavigatingExpCS
PrimaryExpCS <|-- myAtl_NestedExpCS
PrimaryExpCS <|-- myAtl_PrimitiveLiteralExpCS
PrimaryExpCS <|-- myAtl_SelfExpCS
PrimaryExpCS <|-- myAtl_StringExpCs
PrimaryExpCS <|-- myAtl_TupleLiteralExpCS
PrimitiveLiteralExpCS <|-- myAtl_BooleanLiteralExpCS
PrimitiveLiteralExpCS <|-- myAtl_InvalidLiteralExpCS
PrimitiveLiteralExpCS <|-- myAtl_NullLiteralExpCS
PrimitiveLiteralExpCS <|-- myAtl_NumberLiteralExpCS
PrimitiveLiteralExpCS <|-- myAtl_StringLiteralExpCS
PrimitiveLiteralExpCS <|-- myAtl_UnlimitedNaturalLiteralExpCS
Statement <|-- myAtl_BindingStat
TypeExpCS <|-- myAtl_TypeLiteralCS
TypeExpCS <|-- myAtl_TypeNameExpCS
TypeLiteralCS <|-- myAtl_CollectionTypeCS
TypeLiteralCS <|-- myAtl_PrimitiveTypeCS
TypeLiteralCS <|-- myAtl_TupleTypeCS
myAtl_ActionBlock "0..1" --* "1..1" myAtl_MatchedRule : actionBlock14
myAtl_ActionBlock "0..1" --* "1..1" myAtl_CalledRule : actionBlock21
myAtl_EObject "0..9999" --* "1..1" myAtl_NavigatingExpCS : argument144
myAtl_Binding "0..9999" --* "1..1" myAtl_SimpleOutPatternElement : bindings57
myAtl_ExpCS "0..1" --* "1..1" myAtl_ForEachOutPatternElement : collection59
myAtl_ExpCS "0..1" --* "1..1" myAtl_IfExpCS : condition118
myAtl_ATLDefCS "0..1" --* "1..1" myAtl_Helper : definition27
myAtl_InPattern "1..1" *-- "0..9999" myAtl_InPatternElement : elements45
myAtl_OutPattern "1..1" *-- "0..9999" myAtl_OutPatternElement : elements53
myAtl_Module "1..1" *-- "0..9999" myAtl_ModuleElement : elements7
myAtl_ExpCS "0..1" --* "1..1" myAtl_IfExpCS : elseExpression123
myAtl_ExpCS "0..1" --* "1..1" myAtl_InPattern : filter47
myAtl_ExpCS "0..9999" --* "1..1" myAtl_IndexExpCS : firstIndexes138
myAtl_Module "1..1" *-- "0..9999" myAtl_NameExpCS : inModels1
myAtl_InPattern "0..1" --* "1..1" myAtl_MatchedRule : inPattern9
myAtl_ExpCS "0..1" --* "1..1" myAtl_LetExpCS : in_127
myAtl_ExpCS "0..1" --* "1..1" myAtl_NavigatingCommaArgCS : init107
myAtl_ExpCS "0..1" --* "1..1" myAtl_NavigatingSemiArgCS : init115
myAtl_ExpCS "0..1" --* "1..1" myAtl_NavigatingArgCS : init91
myAtl_ExpCS "0..1" --* "1..1" myAtl_NavigatingBarArgCS : init99
myAtl_ExpCS "0..1" --* "1..1" myAtl_LetVariableCS : initExpression133
myAtl_ExpCS "0..1" --* "1..1" myAtl_QueryRule : initExpression25
myAtl_ATLDefCS "1..1" *-- "0..1" myAtl_ExpCS : initExpression33
myAtl_ExpCS "0..1" --* "1..1" myAtl_RuleVariableDeclaration : initExpression42
myAtl_ExpCS "0..1" --* "1..1" myAtl_TupleLiteralPartCS : initExpression83
myAtl_NavigatingArgExpCS "0..1" --* "1..1" myAtl_NavigatingCommaArgCS : name102
myAtl_NavigatingArgExpCS "0..1" --* "1..1" myAtl_NavigatingSemiArgCS : name110
myAtl_NavigatingArgCS "1..1" *-- "0..1" myAtl_NavigatingArgExpCS : name87
myAtl_NavigatingArgExpCS "0..1" --* "1..1" myAtl_NavigatingBarArgCS : name94
myAtl_NavigatingExpCS "1..1" *-- "0..1" myAtl_NavigatingExpCS_Base : namedExp143
myAtl_Module "1..1" *-- "0..9999" myAtl_NameExpCS : outModels0
myAtl_MatchedRule "1..1" *-- "0..1" myAtl_OutPattern : outPattern12
myAtl_CalledRule "1..1" *-- "0..1" myAtl_OutPattern : outPattern18
myAtl_InfixExpCS "1..1" *-- "0..9999" myAtl_PrefixedExpCS : ownedExpression146
myAtl_PrefixExpCS "1..1" *-- "0..1" myAtl_PrimaryExpCS : ownedExpression150
myAtl_BinaryOperatorCS "0..9999" --* "1..1" myAtl_InfixExpCS : ownedOperator147
myAtl_PrefixExpCS "1..1" *-- "0..9999" myAtl_UnaryOperatorCS : ownedOperator149
myAtl_TupleTypeCS "1..1" *-- "0..9999" myAtl_tuplePartCS : ownedParts75
myAtl_TupleLiteralExpCS "1..1" *-- "0..9999" myAtl_TupleLiteralPartCS : ownedParts79
myAtl_NavigatingCommaArgCS "1..1" *-- "0..1" myAtl_TypeExpCS : ownedType104
myAtl_NavigatingSemiArgCS "1..1" *-- "0..1" myAtl_TypeExpCS : ownedType112
myAtl_LetVariableCS "1..1" *-- "0..1" myAtl_TypeExpCS : ownedType130
myAtl_CollectionTypeCS "1..1" *-- "0..1" myAtl_TypeExpCS : ownedType73
myAtl_TypeExpCS "0..1" --* "1..1" myAtl_tuplePartCS : ownedType76
myAtl_TupleLiteralPartCS "1..1" *-- "0..1" myAtl_TypeExpCS : ownedType80
myAtl_TypeLiteralCS "0..1" --* "1..1" myAtl_TypeLiteralExpCS : ownedType86
myAtl_NavigatingArgCS "1..1" *-- "0..1" myAtl_TypeExpCS : ownedType88
myAtl_NavigatingBarArgCS "1..1" *-- "0..1" myAtl_TypeExpCS : ownedType96
myAtl_ATLParameterCS "0..9999" --* "1..1" myAtl_QueryRule : parameters24
myAtl_ATLDefCS "1..1" *-- "0..9999" myAtl_ATLParameterCS : parameters28
myAtl_ExpCS "0..9999" --* "1..1" myAtl_IndexExpCS : secondIndexes140
myAtl_ExpCS "0..1" --* "1..1" myAtl_NestedExpCS : source136
myAtl_BindingStat "1..1" *-- "0..1" myAtl_ExpCS : source66
myAtl_ActionBlock "1..1" *-- "0..9999" myAtl_Statement : statements64
myAtl_ExpCS "0..1" --* "1..1" myAtl_IfExpCS : thenExpression120
myAtl_ATLDefCS "1..1" *-- "0..1" myAtl_ATLType : type31
myAtl_ATLParameterCS "1..1" *-- "0..1" myAtl_ATLType : type36
myAtl_ATLType "0..1" --* "1..1" myAtl_RuleVariableDeclaration : type39
myAtl_ATLType "0..1" --* "1..1" myAtl_InPatternElement : type50
myAtl_ATLType "0..1" --* "1..1" myAtl_SimpleOutPatternElement : type55
myAtl_ATLType "1..1" *-- "0..1" myAtl_TypeExpCS : type71
myAtl_Binding "1..1" *-- "0..1" myAtl_ExpCS : value61
myAtl_BindingStat "1..1" *-- "0..1" myAtl_ExpCS : value68
myAtl_Module "1..1" *-- "0..1" myAtl_NameExpCS : varName4
myAtl_LetExpCS "1..1" *-- "0..9999" myAtl_LetVariableCS : variable126
myAtl_MatchedRule "1..1" *-- "0..9999" myAtl_RuleVariableDeclaration : variables10
myAtl_CalledRule "1..1" *-- "0..9999" myAtl_RuleVariableDeclaration : variables16
@enduml