@startuml
class Data_Attribut {
  + nom : str
  + type : str
}
class Data_Classe {
  + nom : str
}
class Data_Methode {
  + nom : str
  + typeRetour : str
}
class Data_Model {
}
Data_Attribut "0..9999" -- "1..1" Data_Classe : attribut0
Data_Classe "0..9999" --* "1..1" Data_Model : classe6
Data_Classe "1..1" -- "0..9999" Data_Methode : methode1
Data_Attribut "0..9999" -- "1..1" Data_Methode : parametre3
@enduml