@startuml
class Action {
}
class ActionExpression {
}
class ActionSequence {
}
class ActionState {
}
class ActivityGraph {
}
class ArgListsExpression {
}
class Argument {
}
class Association {
}
class AssociationEnd {
}
class AssociationRole {
}
class Attribute {
}
class AttributeLink {
}
class BehavioralFeature {
}
class BooleanExpression {
}
class Classifier {
}
class ClassifierRole {
}
class Collaboration {
}
class CollaborationInstanceSet {
}
class ComponentInstance {
}
class CompositeState {
}
class Event {
}
class Expression {
}
class Extend {
}
class ExtensionPoint {
}
class Feature {
}
class Guard {
}
class Include {
}
class Instance {
}
class Interaction {
}
class InteractionInstanceSet {
}
class IterationExpression {
}
class Link {
}
class LinkEnd {
}
class Message {
}
class ModelElement {
}
class Multiplicity_ {
}
class NodeInstance {
}
class ObjectSetExpression {
}
class Operation {
}
class Parameter {
}
class Partition {
}
class Reception {
}
class Relationship {
}
class SendAction {
}
class Signal {
}
class SignalEvent {
}
class SimpleState {
}
class State {
}
class StateMachine {
}
class StateVertex {
}
class Stimulus {
}
class SubmachineState {
}
class TimeExpression {
}
class Transition {
}
class UseCase {
}
class behavioral_elements_activity_graphs_ActionState {
  + isDynamic : str
}
class behavioral_elements_activity_graphs_ActivityGraph {
}
class behavioral_elements_activity_graphs_CallState {
}
class behavioral_elements_activity_graphs_ClassifierInState {
}
class behavioral_elements_activity_graphs_ObjectFlowState {
  + isSynch : str
}
class behavioral_elements_activity_graphs_Partition {
}
class behavioral_elements_activity_graphs_SubactivityState {
  + isDynamic : str
}
class behavioral_elements_collaborations_AssociationEndRole {
}
class behavioral_elements_collaborations_AssociationRole {
}
class behavioral_elements_collaborations_ClassifierRole {
}
class behavioral_elements_collaborations_Collaboration {
}
class behavioral_elements_collaborations_CollaborationInstanceSet {
}
class behavioral_elements_collaborations_Interaction {
}
class behavioral_elements_collaborations_InteractionInstanceSet {
}
class behavioral_elements_collaborations_Message {
}
abstract class behavioral_elements_common_behavior_Action {
  + isAsynchronous : str
}
class behavioral_elements_common_behavior_ActionSequence {
}
class behavioral_elements_common_behavior_Argument {
}
class behavioral_elements_common_behavior_AttributeLink {
}
class behavioral_elements_common_behavior_CallAction {
}
class behavioral_elements_common_behavior_ComponentInstance {
}
class behavioral_elements_common_behavior_CreateAction {
}
class behavioral_elements_common_behavior_DataValue {
}
class behavioral_elements_common_behavior_DestroyAction {
}
class behavioral_elements_common_behavior_Exception {
}
abstract class behavioral_elements_common_behavior_Instance {
}
class behavioral_elements_common_behavior_Link {
}
class behavioral_elements_common_behavior_LinkEnd {
}
class behavioral_elements_common_behavior_LinkObject {
}
class behavioral_elements_common_behavior_NodeInstance {
}
class behavioral_elements_common_behavior_Object {
}
class behavioral_elements_common_behavior_Reception {
  + isAbstract : str
  + isLeaf : str
  + isRoot : str
  + specification : str
}
class behavioral_elements_common_behavior_ReturnAction {
}
class behavioral_elements_common_behavior_SendAction {
}
class behavioral_elements_common_behavior_Signal {
}
class behavioral_elements_common_behavior_Stimulus {
}
class behavioral_elements_common_behavior_SubsystemInstance {
}
class behavioral_elements_common_behavior_TerminateAction {
}
class behavioral_elements_common_behavior_UninterpretedAction {
}
class behavioral_elements_state_machines_CallEvent {
}
class behavioral_elements_state_machines_ChangeEvent {
}
class behavioral_elements_state_machines_CompositeState {
  + isConcurrent : str
}
abstract class behavioral_elements_state_machines_Event {
}
class behavioral_elements_state_machines_FinalState {
}
class behavioral_elements_state_machines_Guard {
}
class behavioral_elements_state_machines_Pseudostate {
  + kind : str
}
class behavioral_elements_state_machines_SignalEvent {
}
class behavioral_elements_state_machines_SimpleState {
}
abstract class behavioral_elements_state_machines_State {
}
class behavioral_elements_state_machines_StateMachine {
}
abstract class behavioral_elements_state_machines_StateVertex {
}
class behavioral_elements_state_machines_StubState {
  + referenceState : str
}
class behavioral_elements_state_machines_SubmachineState {
}
class behavioral_elements_state_machines_SynchState {
  + bound : str
}
class behavioral_elements_state_machines_TimeEvent {
}
class behavioral_elements_state_machines_Transition {
}
class behavioral_elements_use_cases_Actor {
}
class behavioral_elements_use_cases_Extend {
}
class behavioral_elements_use_cases_ExtensionPoint {
  + location : str
}
class behavioral_elements_use_cases_Include {
}
class behavioral_elements_use_cases_UseCase {
}
class behavioral_elements_use_cases_UseCaseInstance {
}
class common_behavior_Link {
}
class common_behavior_Object {
}
class core_GeneralizableElement {
}
class core_Namespace {
}
Action <|-- behavioral_elements_common_behavior_ActionSequence
Action <|-- behavioral_elements_common_behavior_CallAction
Action <|-- behavioral_elements_common_behavior_CreateAction
Action <|-- behavioral_elements_common_behavior_DestroyAction
Action <|-- behavioral_elements_common_behavior_ReturnAction
Action <|-- behavioral_elements_common_behavior_SendAction
Action <|-- behavioral_elements_common_behavior_TerminateAction
Action <|-- behavioral_elements_common_behavior_UninterpretedAction
ActionState <|-- behavioral_elements_activity_graphs_CallState
Association <|-- behavioral_elements_collaborations_AssociationRole
AssociationEnd <|-- behavioral_elements_collaborations_AssociationEndRole
BehavioralFeature <|-- behavioral_elements_common_behavior_Reception
Classifier <|-- behavioral_elements_activity_graphs_ClassifierInState
Classifier <|-- behavioral_elements_collaborations_ClassifierRole
Classifier <|-- behavioral_elements_common_behavior_Signal
Classifier <|-- behavioral_elements_use_cases_Actor
Classifier <|-- behavioral_elements_use_cases_UseCase
CompositeState <|-- behavioral_elements_state_machines_SubmachineState
Event <|-- behavioral_elements_state_machines_CallEvent
Event <|-- behavioral_elements_state_machines_ChangeEvent
Event <|-- behavioral_elements_state_machines_SignalEvent
Event <|-- behavioral_elements_state_machines_TimeEvent
Instance <|-- behavioral_elements_common_behavior_ComponentInstance
Instance <|-- behavioral_elements_common_behavior_DataValue
Instance <|-- behavioral_elements_common_behavior_NodeInstance
Instance <|-- behavioral_elements_common_behavior_Object
Instance <|-- behavioral_elements_common_behavior_SubsystemInstance
Instance <|-- behavioral_elements_use_cases_UseCaseInstance
ModelElement <|-- behavioral_elements_activity_graphs_Partition
ModelElement <|-- behavioral_elements_collaborations_CollaborationInstanceSet
ModelElement <|-- behavioral_elements_collaborations_Interaction
ModelElement <|-- behavioral_elements_collaborations_InteractionInstanceSet
ModelElement <|-- behavioral_elements_collaborations_Message
ModelElement <|-- behavioral_elements_common_behavior_Action
ModelElement <|-- behavioral_elements_common_behavior_Argument
ModelElement <|-- behavioral_elements_common_behavior_AttributeLink
ModelElement <|-- behavioral_elements_common_behavior_Instance
ModelElement <|-- behavioral_elements_common_behavior_Link
ModelElement <|-- behavioral_elements_common_behavior_LinkEnd
ModelElement <|-- behavioral_elements_common_behavior_Stimulus
ModelElement <|-- behavioral_elements_state_machines_Event
ModelElement <|-- behavioral_elements_state_machines_Guard
ModelElement <|-- behavioral_elements_state_machines_StateMachine
ModelElement <|-- behavioral_elements_state_machines_StateVertex
ModelElement <|-- behavioral_elements_state_machines_Transition
ModelElement <|-- behavioral_elements_use_cases_ExtensionPoint
Relationship <|-- behavioral_elements_use_cases_Extend
Relationship <|-- behavioral_elements_use_cases_Include
Signal <|-- behavioral_elements_common_behavior_Exception
SimpleState <|-- behavioral_elements_activity_graphs_ActionState
SimpleState <|-- behavioral_elements_activity_graphs_ObjectFlowState
State <|-- behavioral_elements_state_machines_CompositeState
State <|-- behavioral_elements_state_machines_FinalState
State <|-- behavioral_elements_state_machines_SimpleState
StateMachine <|-- behavioral_elements_activity_graphs_ActivityGraph
StateVertex <|-- behavioral_elements_state_machines_Pseudostate
StateVertex <|-- behavioral_elements_state_machines_State
StateVertex <|-- behavioral_elements_state_machines_StubState
StateVertex <|-- behavioral_elements_state_machines_SynchState
SubmachineState <|-- behavioral_elements_activity_graphs_SubactivityState
common_behavior_Link <|-- behavioral_elements_common_behavior_LinkObject
common_behavior_Object <|-- behavioral_elements_common_behavior_LinkObject
core_GeneralizableElement <|-- behavioral_elements_collaborations_Collaboration
core_Namespace <|-- behavioral_elements_collaborations_Collaboration
Action "1..1" -- "1..1" behavioral_elements_collaborations_Message : action215
Action "0..9999" --* "1..1" behavioral_elements_common_behavior_ActionSequence : action43
Action "0..1" -- "1..1" behavioral_elements_common_behavior_Argument : action45
ActionSequence "0..1" -- "1..1" behavioral_elements_common_behavior_Action : actionSequence23
Message "0..1" -- "1..1" behavioral_elements_collaborations_Message : activator202
ActivityGraph "1..1" -- "1..1" behavioral_elements_activity_graphs_Partition : activityGraph252
Argument "0..9999" --* "1..1" behavioral_elements_common_behavior_Action : actualArgument22
UseCase "1..1" -- "1..1" behavioral_elements_use_cases_Include : addition93
Instance "0..9999" -- "1..1" behavioral_elements_common_behavior_Stimulus : argument57
Association "1..1" -- "1..1" behavioral_elements_common_behavior_Link : association36
AssociationEnd "1..1" -- "1..1" behavioral_elements_common_behavior_LinkEnd : associationEnd53
Attribute "1..1" -- "1..1" behavioral_elements_common_behavior_AttributeLink : attribute29
AttributeLink "0..9999" -- "1..1" behavioral_elements_common_behavior_Instance : attributeLink1
ModelElement "0..9999" -- "1..1" behavioral_elements_collaborations_ClassifierRole : availableContents177
Feature "0..9999" -- "1..1" behavioral_elements_collaborations_ClassifierRole : availableFeature175
Attribute "0..9999" -- "1..1" behavioral_elements_collaborations_AssociationEndRole : availableQualifier198
Classifier "1..9999" -- "1..1" behavioral_elements_collaborations_ClassifierRole : base172
Association "0..1" -- "1..1" behavioral_elements_collaborations_AssociationRole : base185
AssociationEnd "0..1" -- "1..1" behavioral_elements_collaborations_AssociationEndRole : base195
UseCase "1..1" -- "1..1" behavioral_elements_use_cases_Extend : base87
UseCase "1..1" -- "1..1" behavioral_elements_use_cases_Include : base95
BooleanExpression "0..1" --* "1..1" behavioral_elements_state_machines_ChangeEvent : changeExpression151
Classifier "1..9999" -- "1..1" behavioral_elements_common_behavior_Instance : classifier0
Collaboration "0..1" -- "1..1" behavioral_elements_collaborations_CollaborationInstanceSet : collaboration239
CollaborationInstanceSet "0..9999" -- "1..1" behavioral_elements_collaborations_Collaboration : collaborationInstanceSet164
Multiplicity_ "0..1" --* "1..1" behavioral_elements_collaborations_AssociationEndRole : collaborationMultiplicity193
AssociationRole "0..1" -- "1..1" behavioral_elements_collaborations_Message : communicationConnection213
Link "0..1" -- "1..1" behavioral_elements_common_behavior_Stimulus : communicationLink65
ComponentInstance "0..1" -- "1..1" behavioral_elements_common_behavior_Instance : componentInstance6
BooleanExpression "0..1" --* "1..1" behavioral_elements_use_cases_Extend : condition86
Instance "0..9999" -- "1..1" behavioral_elements_collaborations_ClassifierRole : conformingInstance180
Link "0..9999" -- "1..1" behavioral_elements_collaborations_AssociationRole : conformingLink190
Stimulus "0..9999" -- "1..1" behavioral_elements_collaborations_Message : conformingStimulus218
LinkEnd "2..9999" --* "1..1" behavioral_elements_common_behavior_Link : connection37
ModelElement "0..9999" -- "1..1" behavioral_elements_collaborations_Collaboration : constrainingElement162
ModelElement "0..9999" -- "1..1" behavioral_elements_collaborations_CollaborationInstanceSet : constrainingElement246
CompositeState "0..1" -- "1..1" behavioral_elements_state_machines_StateVertex : container111
ModelElement "0..9999" -- "1..1" behavioral_elements_activity_graphs_Partition : contents250
ModelElement "0..1" -- "1..1" behavioral_elements_state_machines_StateMachine : context102
BehavioralFeature "0..9999" -- "1..1" behavioral_elements_common_behavior_Signal : context12
Collaboration "1..1" -- "1..1" behavioral_elements_collaborations_Interaction : context222
CollaborationInstanceSet "1..1" -- "1..1" behavioral_elements_collaborations_InteractionInstanceSet : context228
Event "0..9999" -- "1..1" behavioral_elements_state_machines_State : deferrableEvent122
Action "1..1" -- "1..1" behavioral_elements_common_behavior_Stimulus : dispatchAction67
Action "0..1" --* "1..1" behavioral_elements_state_machines_State : doActivity126
ArgListsExpression "0..1" --* "1..1" behavioral_elements_activity_graphs_SubactivityState : dynamicArguments253
ArgListsExpression "0..1" --* "1..1" behavioral_elements_activity_graphs_ActionState : dynamicArguments257
Multiplicity_ "0..1" --* "1..1" behavioral_elements_activity_graphs_SubactivityState : dynamicMultiplicity254
Multiplicity_ "0..1" --* "1..1" behavioral_elements_activity_graphs_ActionState : dynamicMultiplicity259
Action "0..1" --* "1..1" behavioral_elements_state_machines_Transition : effect136
Action "0..1" --* "1..1" behavioral_elements_state_machines_State : entry116
Action "0..1" --* "1..1" behavioral_elements_state_machines_State : exit118
BooleanExpression "0..1" --* "1..1" behavioral_elements_state_machines_Guard : expression153
Extend "0..9999" -- "1..1" behavioral_elements_use_cases_UseCase : extend79
Extend "0..9999" -- "1..1" behavioral_elements_use_cases_ExtensionPoint : extend99
Extend "0..9999" -- "1..1" behavioral_elements_use_cases_UseCase : extender78
UseCase "1..1" -- "1..1" behavioral_elements_use_cases_Extend : extension88
ExtensionPoint "0..9999" --* "1..1" behavioral_elements_use_cases_UseCase : extensionPoint85
ExtensionPoint "1..9999" -- "1..1" behavioral_elements_use_cases_Extend : extensionPoint90
Guard "0..1" --* "1..1" behavioral_elements_state_machines_Transition : guard135
State "1..9999" -- "1..1" behavioral_elements_activity_graphs_ClassifierInState : inState269
Include "0..9999" -- "1..1" behavioral_elements_use_cases_UseCase : include82
Include "0..9999" -- "1..1" behavioral_elements_use_cases_UseCase : includer81
Transition "0..9999" -- "1..1" behavioral_elements_state_machines_StateVertex : incoming114
Instance "0..1" -- "1..1" behavioral_elements_common_behavior_AttributeLink : instance32
Instance "1..1" -- "1..1" behavioral_elements_common_behavior_LinkEnd : instance49
Classifier "1..1" -- "1..1" behavioral_elements_common_behavior_CreateAction : instantiation27
Interaction "0..9999" --* "1..1" behavioral_elements_collaborations_Collaboration : interaction159
Interaction "1..1" -- "1..1" behavioral_elements_collaborations_Message : interaction200
Interaction "0..1" -- "1..1" behavioral_elements_collaborations_InteractionInstanceSet : interaction230
InteractionInstanceSet "0..9999" -- "1..1" behavioral_elements_collaborations_Interaction : interactionInstanceSet225
InteractionInstanceSet "0..9999" --* "1..1" behavioral_elements_collaborations_CollaborationInstanceSet : interactionInstanceSet236
InteractionInstanceSet "0..9999" -- "1..1" behavioral_elements_common_behavior_Stimulus : interactionInstanceSet71
Transition "0..9999" --* "1..1" behavioral_elements_state_machines_State : internalTransition124
Link "1..1" -- "1..1" behavioral_elements_common_behavior_LinkEnd : link51
LinkEnd "0..9999" -- "1..1" behavioral_elements_common_behavior_Instance : linkEnd2
LinkEnd "0..1" -- "1..1" behavioral_elements_common_behavior_AttributeLink : linkEnd34
Message "0..9999" -- "1..1" behavioral_elements_collaborations_AssociationRole : message188
Message "1..9999" --* "1..1" behavioral_elements_collaborations_Interaction : message220
Multiplicity_ "0..1" --* "1..1" behavioral_elements_collaborations_ClassifierRole : multiplicity171
Multiplicity_ "0..1" --* "1..1" behavioral_elements_collaborations_AssociationRole : multiplicity183
NodeInstance "0..1" -- "1..1" behavioral_elements_common_behavior_ComponentInstance : nodeInstance72
SignalEvent "0..9999" -- "1..1" behavioral_elements_common_behavior_Signal : occurrence15
Operation "1..1" -- "1..1" behavioral_elements_state_machines_CallEvent : operation130
Operation "1..1" -- "1..1" behavioral_elements_common_behavior_CallAction : operation41
Transition "0..9999" -- "1..1" behavioral_elements_state_machines_StateVertex : outgoing112
Instance "0..9999" --* "1..1" behavioral_elements_common_behavior_Instance : ownedInstance7
Link "0..9999" --* "1..1" behavioral_elements_common_behavior_Instance : ownedLink9
Parameter "0..9999" --* "1..1" behavioral_elements_state_machines_Event : parameter108
Parameter "0..9999" -- "1..1" behavioral_elements_activity_graphs_ObjectFlowState : parameter262
Instance "1..9999" -- "1..1" behavioral_elements_collaborations_CollaborationInstanceSet : participatingInstance241
Link "0..9999" -- "1..1" behavioral_elements_collaborations_CollaborationInstanceSet : participatingLink243
Stimulus "1..9999" -- "1..1" behavioral_elements_collaborations_InteractionInstanceSet : participatingStimulus233
Partition "0..9999" --* "1..1" behavioral_elements_activity_graphs_ActivityGraph : partition249
Message "0..9999" -- "1..1" behavioral_elements_common_behavior_Stimulus : playedRole70
Message "0..9999" -- "1..1" behavioral_elements_collaborations_Message : predecessor209
AttributeLink "0..9999" --* "1..1" behavioral_elements_common_behavior_LinkEnd : qualifiedValue54
ClassifierRole "1..1" -- "1..1" behavioral_elements_collaborations_Message : receiver206
Instance "1..1" -- "1..1" behavioral_elements_common_behavior_Stimulus : receiver62
Reception "0..9999" -- "1..1" behavioral_elements_common_behavior_Signal : reception11
IterationExpression "0..1" --* "1..1" behavioral_elements_common_behavior_Action : recurrence17
Classifier "0..1" -- "1..1" behavioral_elements_collaborations_Collaboration : representedClassifier168
Operation "0..1" -- "1..1" behavioral_elements_collaborations_Collaboration : representedOperation160
Instance "0..9999" -- "1..1" behavioral_elements_common_behavior_ComponentInstance : resident74
ComponentInstance "0..9999" -- "1..1" behavioral_elements_common_behavior_NodeInstance : resident76
ActionExpression "0..1" --* "1..1" behavioral_elements_common_behavior_Action : script20
SendAction "0..9999" -- "1..1" behavioral_elements_common_behavior_Signal : sendAction13
ClassifierRole "1..1" -- "1..1" behavioral_elements_collaborations_Message : sender204
Instance "1..1" -- "1..1" behavioral_elements_common_behavior_Stimulus : sender59
Signal "1..1" -- "1..1" behavioral_elements_state_machines_SignalEvent : signal132
Signal "1..1" -- "1..1" behavioral_elements_common_behavior_SendAction : signal42
Signal "1..1" -- "1..1" behavioral_elements_common_behavior_Reception : signal47
AttributeLink "0..9999" --* "1..1" behavioral_elements_common_behavior_Instance : slot3
StateVertex "1..1" -- "1..1" behavioral_elements_state_machines_Transition : source146
State "0..1" -- "1..1" behavioral_elements_state_machines_Transition : state139
StateMachine "0..1" -- "1..1" behavioral_elements_state_machines_State : stateMachine121
StateMachine "0..1" -- "1..1" behavioral_elements_state_machines_Transition : stateMachine144
Stimulus "0..9999" -- "1..1" behavioral_elements_common_behavior_Action : stimulus25
Stimulus "0..9999" -- "1..1" behavioral_elements_common_behavior_Link : stimulus39
StateMachine "1..1" -- "1..1" behavioral_elements_state_machines_SubmachineState : submachine157
SubmachineState "0..9999" -- "1..1" behavioral_elements_state_machines_StateMachine : submachineState107
StateVertex "0..9999" --* "1..1" behavioral_elements_state_machines_CompositeState : subvertex149
Message "0..9999" -- "1..1" behavioral_elements_collaborations_Message : successor211
StateVertex "1..1" -- "1..1" behavioral_elements_state_machines_Transition : target147
ObjectSetExpression "0..1" --* "1..1" behavioral_elements_common_behavior_Action : target18
State "1..1" --* "1..1" behavioral_elements_state_machines_StateMachine : top103
Transition "0..9999" -- "1..1" behavioral_elements_state_machines_Event : transition109
Transition "1..1" -- "1..1" behavioral_elements_state_machines_Guard : transition155
Transition "0..1" -- "1..1" behavioral_elements_common_behavior_Action : transition26
Transition "0..9999" --* "1..1" behavioral_elements_state_machines_StateMachine : transitions104
Event "0..1" -- "1..1" behavioral_elements_state_machines_Transition : trigger141
Classifier "1..1" -- "1..1" behavioral_elements_activity_graphs_ObjectFlowState : type264
Classifier "1..1" -- "1..1" behavioral_elements_activity_graphs_ClassifierInState : type267
UseCase "1..1" -- "1..1" behavioral_elements_use_cases_ExtensionPoint : useCase97
Collaboration "0..9999" -- "1..1" behavioral_elements_collaborations_Collaboration : usedCollaboration166
Instance "1..1" -- "1..1" behavioral_elements_common_behavior_AttributeLink : value30
Expression "0..1" --* "1..1" behavioral_elements_common_behavior_Argument : value44
TimeExpression "0..1" --* "1..1" behavioral_elements_state_machines_TimeEvent : when129
@enduml