@startuml
class ActionBlock {
}
class Attribute {
}
class Binding {
}
class CollectionExp {
}
class CollectionType {
}
class DropPattern {
}
class Helper {
}
class IfExp {
}
class InPattern {
}
class InPatternElement {
}
class IterateExp {
}
class Iterator {
}
class LetExp {
}
class Library {
}
class LibraryRef {
}
class LocatedElement {
}
class LoopExp {
}
class MapElement {
}
class MapExp {
}
class MapType {
}
class MatchedRule {
}
class Module {
}
class ModuleElement {
}
class NumericExp {
}
class NumericType {
}
class OclContextDefinition {
}
class OclExpression {
}
class OclFeature {
}
class OclFeatureDefinition {
}
class OclModel {
}
class OclModelElement {
}
class OclType {
}
class Operation {
}
class OperationCallExp {
}
class OutPattern {
}
class OutPatternElement {
}
class Parameter {
}
class PatternElement {
}
class Primitive {
}
class PrimitiveExp {
}
class PropertyCallExp {
}
class Query {
}
class Rule {
}
class RuleVariableDeclaration {
}
class Statement {
}
class TupleExp {
}
class TuplePart {
}
class TupleType {
}
class TupleTypeAttribute {
}
class Unit {
}
class VariableDeclaration {
}
class VariableExp {
}
class top_ATL_ActionBlock {
}
class top_ATL_Binding {
  + isAssignment : str
  + propertyName : str
}
class top_ATL_BindingStat {
  + isAssignment : str
  + propertyName : str
}
class top_ATL_CalledRule {
  + isEndpoint : str
  + isEntrypoint : str
}
class top_ATL_DropPattern {
}
class top_ATL_ExpressionStat {
}
class top_ATL_ForEachOutPatternElement {
}
class top_ATL_ForStat {
}
class top_ATL_Helper {
}
class top_ATL_IfStat {
}
class top_ATL_InPattern {
}
abstract class top_ATL_InPatternElement {
}
class top_ATL_LazyMatchedRule {
  + isUnique : str
}
class top_ATL_Library {
}
class top_ATL_LibraryRef {
  + name : str
}
abstract class top_ATL_LocatedElement {
  + commentsAfter : str
  + commentsBefore : str
  + location : str
}
class top_ATL_MatchedRule {
  + isAbstract : str
  + isNoDefault : str
  + isRefining : str
}
class top_ATL_Module {
  + isRefining : str
}
abstract class top_ATL_ModuleElement {
}
class top_ATL_OutPattern {
}
abstract class top_ATL_OutPatternElement {
}
abstract class top_ATL_PatternElement {
}
class top_ATL_Query {
}
abstract class top_ATL_Rule {
  + name : str
}
class top_ATL_RuleVariableDeclaration {
}
class top_ATL_SimpleInPatternElement {
}
class top_ATL_SimpleOutPatternElement {
}
abstract class top_ATL_Statement {
}
class top_ATL_Unit {
  + name : str
}
class top_OCL_Attribute {
  + name : str
}
class top_OCL_BagExp {
}
class top_OCL_BagType {
}
class top_OCL_BooleanExp {
  + booleanSymbol : str
}
class top_OCL_BooleanType {
}
abstract class top_OCL_CollectionExp {
}
class top_OCL_CollectionOperationCallExp {
}
class top_OCL_CollectionType {
}
class top_OCL_EnumLiteralExp {
  + name : str
}
class top_OCL_IfExp {
}
class top_OCL_IntegerExp {
  + integerSymbol : str
}
class top_OCL_IntegerType {
}
class top_OCL_IterateExp {
}
class top_OCL_Iterator {
}
class top_OCL_IteratorExp {
  + name : str
}
class top_OCL_LetExp {
}
abstract class top_OCL_LoopExp {
}
class top_OCL_MapElement {
}
class top_OCL_MapExp {
}
class top_OCL_MapType {
}
class top_OCL_NavigationOrAttributeCallExp {
  + name : str
}
abstract class top_OCL_NumericExp {
}
abstract class top_OCL_NumericType {
}
class top_OCL_OclAnyType {
}
class top_OCL_OclContextDefinition {
}
abstract class top_OCL_OclExpression {
}
abstract class top_OCL_OclFeature {
}
class top_OCL_OclFeatureDefinition {
}
class top_OCL_OclModel {
  + name : str
}
class top_OCL_OclModelElement {
}
class top_OCL_OclType {
  + name : str
}
class top_OCL_OclUndefinedExp {
}
class top_OCL_Operation {
  + name : str
}
class top_OCL_OperationCallExp {
  + operationName : str
}
class top_OCL_OperatorCallExp {
}
class top_OCL_OrderedSetExp {
}
class top_OCL_OrderedSetType {
}
class top_OCL_Parameter {
}
abstract class top_OCL_Primitive {
}
abstract class top_OCL_PrimitiveExp {
}
abstract class top_OCL_PropertyCallExp {
}
class top_OCL_RealExp {
  + realSymbol : str
}
class top_OCL_RealType {
}
class top_OCL_SequenceExp {
}
class top_OCL_SequenceType {
}
class top_OCL_SetExp {
}
class top_OCL_SetType {
}
class top_OCL_StringExp {
  + stringSymbol : str
}
class top_OCL_StringType {
}
class top_OCL_SuperExp {
}
class top_OCL_TupleExp {
}
class top_OCL_TuplePart {
}
class top_OCL_TupleType {
}
class top_OCL_TupleTypeAttribute {
  + name : str
}
class top_OCL_VariableDeclaration {
  + id : str
  + varName : str
}
class top_OCL_VariableExp {
}
CollectionExp <|-- top_OCL_BagExp
CollectionExp <|-- top_OCL_OrderedSetExp
CollectionExp <|-- top_OCL_SequenceExp
CollectionExp <|-- top_OCL_SetExp
CollectionType <|-- top_OCL_BagType
CollectionType <|-- top_OCL_OrderedSetType
CollectionType <|-- top_OCL_SequenceType
CollectionType <|-- top_OCL_SetType
InPatternElement <|-- top_ATL_SimpleInPatternElement
LocatedElement <|-- top_ATL_ActionBlock
LocatedElement <|-- top_ATL_Binding
LocatedElement <|-- top_ATL_DropPattern
LocatedElement <|-- top_ATL_InPattern
LocatedElement <|-- top_ATL_LibraryRef
LocatedElement <|-- top_ATL_ModuleElement
LocatedElement <|-- top_ATL_OutPattern
LocatedElement <|-- top_ATL_Statement
LocatedElement <|-- top_ATL_Unit
LocatedElement <|-- top_OCL_MapElement
LocatedElement <|-- top_OCL_OclContextDefinition
LocatedElement <|-- top_OCL_OclExpression
LocatedElement <|-- top_OCL_OclFeature
LocatedElement <|-- top_OCL_OclFeatureDefinition
LocatedElement <|-- top_OCL_OclModel
LocatedElement <|-- top_OCL_TupleTypeAttribute
LocatedElement <|-- top_OCL_VariableDeclaration
LoopExp <|-- top_OCL_IterateExp
LoopExp <|-- top_OCL_IteratorExp
MatchedRule <|-- top_ATL_LazyMatchedRule
ModuleElement <|-- top_ATL_Helper
ModuleElement <|-- top_ATL_Rule
NumericExp <|-- top_OCL_IntegerExp
NumericExp <|-- top_OCL_RealExp
NumericType <|-- top_OCL_IntegerType
NumericType <|-- top_OCL_RealType
OclExpression <|-- top_OCL_CollectionExp
OclExpression <|-- top_OCL_EnumLiteralExp
OclExpression <|-- top_OCL_IfExp
OclExpression <|-- top_OCL_LetExp
OclExpression <|-- top_OCL_MapExp
OclExpression <|-- top_OCL_OclType
OclExpression <|-- top_OCL_OclUndefinedExp
OclExpression <|-- top_OCL_PrimitiveExp
OclExpression <|-- top_OCL_PropertyCallExp
OclExpression <|-- top_OCL_SuperExp
OclExpression <|-- top_OCL_TupleExp
OclExpression <|-- top_OCL_VariableExp
OclFeature <|-- top_OCL_Attribute
OclFeature <|-- top_OCL_Operation
OclType <|-- top_OCL_CollectionType
OclType <|-- top_OCL_MapType
OclType <|-- top_OCL_OclAnyType
OclType <|-- top_OCL_OclModelElement
OclType <|-- top_OCL_Primitive
OclType <|-- top_OCL_TupleType
OperationCallExp <|-- top_OCL_CollectionOperationCallExp
OperationCallExp <|-- top_OCL_OperatorCallExp
OutPatternElement <|-- top_ATL_ForEachOutPatternElement
OutPatternElement <|-- top_ATL_SimpleOutPatternElement
PatternElement <|-- top_ATL_InPatternElement
PatternElement <|-- top_ATL_OutPatternElement
Primitive <|-- top_OCL_BooleanType
Primitive <|-- top_OCL_NumericType
Primitive <|-- top_OCL_StringType
PrimitiveExp <|-- top_OCL_BooleanExp
PrimitiveExp <|-- top_OCL_NumericExp
PrimitiveExp <|-- top_OCL_StringExp
PropertyCallExp <|-- top_OCL_LoopExp
PropertyCallExp <|-- top_OCL_NavigationOrAttributeCallExp
PropertyCallExp <|-- top_OCL_OperationCallExp
Rule <|-- top_ATL_CalledRule
Rule <|-- top_ATL_MatchedRule
Statement <|-- top_ATL_BindingStat
Statement <|-- top_ATL_ExpressionStat
Statement <|-- top_ATL_ForStat
Statement <|-- top_ATL_IfStat
Unit <|-- top_ATL_Library
Unit <|-- top_ATL_Module
Unit <|-- top_ATL_Query
VariableDeclaration <|-- top_ATL_PatternElement
VariableDeclaration <|-- top_ATL_RuleVariableDeclaration
VariableDeclaration <|-- top_OCL_Iterator
VariableDeclaration <|-- top_OCL_Parameter
VariableDeclaration <|-- top_OCL_TuplePart
ActionBlock "0..1" --* "1..1" top_ATL_Rule : actionBlock16
PropertyCallExp "0..1" -- "1..1" top_OCL_OclExpression : appliedProperty95
OclExpression "0..9999" --* "1..1" top_OCL_OperationCallExp : arguments126
Attribute "0..1" -- "1..1" top_OCL_OclType : attribute165
TupleTypeAttribute "0..9999" --* "1..1" top_OCL_TupleType : attributes176
IterateExp "0..1" -- "1..1" top_OCL_VariableDeclaration : baseExp151
Binding "0..9999" --* "1..1" top_ATL_OutPatternElement : bindings51
OclExpression "1..1" --* "1..1" top_OCL_LoopExp : body128
OclExpression "1..1" --* "1..1" top_ATL_Query : body2
OclExpression "1..1" --* "1..1" top_OCL_Operation : body208
MatchedRule "0..9999" -- "1..1" top_ATL_MatchedRule : children22
OclExpression "1..1" --* "1..1" top_ATL_ForEachOutPatternElement : collection56
OclExpression "1..1" --* "1..1" top_ATL_ForStat : collection87
CollectionExp "0..1" -- "1..1" top_OCL_OclExpression : collection96
CollectionType "0..1" -- "1..1" top_OCL_OclType : collectionTypes170
OclExpression "1..1" --* "1..1" top_OCL_IfExp : condition141
OclExpression "1..1" --* "1..1" top_ATL_IfStat : condition77
OclContextDefinition "0..1" --* "1..1" top_OCL_OclFeatureDefinition : context_189
OclType "1..1" --* "1..1" top_OCL_OclContextDefinition : context_195
OclFeatureDefinition "1..1" --* "1..1" top_ATL_Helper : definition14
OclFeatureDefinition "1..1" -- "1..1" top_OCL_OclContextDefinition : definition192
OclFeatureDefinition "0..1" -- "1..1" top_OCL_OclFeature : definition197
OclContextDefinition "0..1" -- "1..1" top_OCL_OclType : definitions159
DropPattern "0..1" --* "1..1" top_ATL_OutPattern : dropPattern33
OclType "1..1" --* "1..1" top_OCL_CollectionType : elementType157
OclExpression "0..9999" --* "1..1" top_OCL_CollectionExp : elements112
MapElement "0..9999" --* "1..1" top_OCL_MapExp : elements116
OclModelElement "0..9999" -- "1..1" top_OCL_OclModel : elements212
InPatternElement "1..9999" --* "1..1" top_ATL_InPattern : elements26
OutPatternElement "1..9999" --* "1..1" top_ATL_OutPattern : elements35
ModuleElement "0..9999" --* "1..1" top_ATL_Module : elements9
OclExpression "1..1" --* "1..1" top_OCL_IfExp : elseExpression143
Statement "0..9999" --* "1..1" top_ATL_IfStat : elseStatements82
OclExpression "1..1" --* "1..1" top_ATL_ExpressionStat : expression70
OclFeature "1..1" --* "1..1" top_OCL_OclFeatureDefinition : feature188
OclExpression "0..1" --* "1..1" top_ATL_InPattern : filter30
Helper "0..9999" --* "1..1" top_ATL_Library : helpers1
Helper "0..9999" --* "1..1" top_ATL_Query : helpers3
IfExp "0..1" -- "1..1" top_OCL_OclExpression : ifExp1106
IfExp "0..1" -- "1..1" top_OCL_OclExpression : ifExp2102
IfExp "0..1" -- "1..1" top_OCL_OclExpression : ifExp394
OclModel "1..9999" --* "1..1" top_ATL_Module : inModels5
InPattern "0..1" --* "1..1" top_ATL_MatchedRule : inPattern20
InPattern "1..1" -- "1..1" top_ATL_InPatternElement : inPattern41
OclExpression "1..1" --* "1..1" top_OCL_LetExp : in_136
OclExpression "0..1" --* "1..1" top_OCL_VariableDeclaration : initExpression147
OclExpression "1..1" --* "1..1" top_OCL_Attribute : initExpression199
VariableDeclaration "0..1" -- "1..1" top_OCL_OclExpression : initializedVariable101
Iterator "1..1" --* "1..1" top_ATL_ForEachOutPatternElement : iterator58
Iterator "1..1" --* "1..1" top_ATL_ForStat : iterator85
Iterator "1..9999" --* "1..1" top_OCL_LoopExp : iterators130
OclExpression "1..1" --* "1..1" top_OCL_MapElement : key119
OclType "1..1" --* "1..1" top_OCL_MapType : keyType186
LetExp "0..1" -- "1..1" top_OCL_VariableDeclaration : letExp149
LetExp "0..1" -- "1..1" top_OCL_OclExpression : letExp98
LibraryRef "0..9999" --* "1..1" top_ATL_Unit : libraries0
Library "0..1" -- "1..1" top_ATL_Helper : library12
LoopExp "0..1" -- "1..1" top_OCL_OclExpression : loopExp99
LoopExp "0..1" -- "1..1" top_OCL_Iterator : loopExpr153
MapExp "1..1" -- "1..1" top_OCL_MapElement : map117
MapType "0..1" -- "1..1" top_OCL_OclType : mapType168
MapType "0..1" -- "1..1" top_OCL_OclType : mapType2164
OutPatternElement "1..1" -- "1..1" top_ATL_InPatternElement : mapsTo39
OclModel "1..1" -- "1..1" top_OCL_OclModel : metamodel210
OclModel "1..1" -- "1..1" top_OCL_OclModelElement : model181
OclModel "0..9999" -- "1..1" top_OCL_OclModel : model214
OclModel "0..1" -- "1..1" top_ATL_OutPatternElement : model52
OclModel "0..9999" -- "1..1" top_ATL_InPatternElement : models44
Module "0..1" -- "1..1" top_ATL_ModuleElement : module10
OclExpression "0..1" -- "1..1" top_OCL_OclType : oclExpression160
Operation "0..1" -- "1..1" top_OCL_Parameter : operation155
Operation "0..1" -- "1..1" top_OCL_OclType : operation162
OclModel "1..9999" --* "1..1" top_ATL_Module : outModels6
OutPattern "0..1" --* "1..1" top_ATL_Rule : outPattern15
OutPattern "1..1" -- "1..1" top_ATL_DropPattern : outPattern37
OutPattern "1..1" -- "1..1" top_ATL_OutPatternElement : outPattern46
OutPatternElement "1..1" -- "1..1" top_ATL_Binding : outPatternElement62
Attribute "0..1" -- "1..1" top_OCL_OclExpression : owningAttribute108
Operation "0..1" -- "1..1" top_OCL_OclExpression : owningOperation104
Parameter "0..9999" --* "1..1" top_OCL_Operation : parameters203
Parameter "0..9999" --* "1..1" top_ATL_CalledRule : parameters25
OperationCallExp "0..1" -- "1..1" top_OCL_OclExpression : parentOperation100
Query "0..1" -- "1..1" top_ATL_Helper : query11
VariableDeclaration "1..1" -- "1..1" top_OCL_VariableExp : referredVariable110
VariableDeclaration "1..1" --* "1..1" top_OCL_IterateExp : result132
OclType "1..1" --* "1..1" top_OCL_Operation : returnType205
OclExpression "0..9999" --* "1..1" top_ATL_SimpleOutPatternElement : reverseBindings54
MatchedRule "1..1" -- "1..1" top_ATL_InPattern : rule27
Rule "1..1" -- "1..1" top_ATL_OutPattern : rule32
Rule "1..1" -- "1..1" top_ATL_RuleVariableDeclaration : rule64
Rule "1..1" -- "1..1" top_ATL_ActionBlock : rule67
OclExpression "1..1" --* "1..1" top_OCL_PropertyCallExp : source124
OclExpression "1..1" --* "1..1" top_ATL_BindingStat : source72
InPatternElement "0..1" -- "1..1" top_ATL_OutPatternElement : sourceElement49
Statement "0..9999" --* "1..1" top_ATL_ActionBlock : statements69
Statement "0..9999" --* "1..1" top_ATL_ForStat : statements90
MatchedRule "0..1" -- "1..1" top_ATL_MatchedRule : superRule23
OclExpression "1..1" --* "1..1" top_OCL_IfExp : thenExpression139
Statement "0..9999" --* "1..1" top_ATL_IfStat : thenStatements79
TupleExp "1..1" -- "1..1" top_OCL_TuplePart : tuple115
TuplePart "0..9999" --* "1..1" top_OCL_TupleExp : tuplePart114
TupleType "1..1" -- "1..1" top_OCL_TupleTypeAttribute : tupleType180
TupleTypeAttribute "0..1" -- "1..1" top_OCL_OclType : tupleTypeAttribute171
OclType "0..1" --* "1..1" top_OCL_VariableDeclaration : type145
OclType "1..1" --* "1..1" top_OCL_TupleTypeAttribute : type178
OclType "1..1" --* "1..1" top_OCL_Attribute : type201
OclType "0..1" --* "1..1" top_OCL_OclExpression : type93
Unit "1..1" -- "1..1" top_ATL_LibraryRef : unit66
OclExpression "1..1" --* "1..1" top_OCL_MapElement : value121
OclExpression "1..1" --* "1..1" top_ATL_Binding : value60
OclExpression "1..1" --* "1..1" top_ATL_BindingStat : value74
OclType "1..1" --* "1..1" top_OCL_MapType : valueType184
VariableDeclaration "1..1" --* "1..1" top_OCL_LetExp : variable134
VariableDeclaration "0..1" -- "1..1" top_OCL_OclType : variableDeclaration173
VariableExp "0..9999" -- "1..1" top_OCL_VariableDeclaration : variableExp152
RuleVariableDeclaration "0..9999" --* "1..1" top_ATL_Rule : variables18
@enduml