@startuml
class fsa_FSA {
}
class fsa_State {
  + accepting : bool
  + name : str
}
class fsa_Transition {
  + event : str
}
fsa_State "1..1" -- "1..1" fsa_Transition : fromState9
fsa_State "1..1" -- "0..9999" fsa_Transition : incomingTransitions7
fsa_FSA "1..1" -- "1..1" fsa_State : initialState3
fsa_State "1..1" -- "0..9999" fsa_Transition : outgoingTransitions6
fsa_FSA "1..1" *-- "0..9999" fsa_State : states0
fsa_State "1..1" -- "1..1" fsa_Transition : toState10
fsa_FSA "1..1" *-- "0..9999" fsa_Transition : transitions1
@enduml