@startuml
class Accessor {
}
class BaseType {
}
class ConstraintNat {
}
class Decl {
}
class Exp {
}
class FeatureDecl {
}
class FeatureType {
}
class InvariantDecl {
}
class Literal {
}
class MModifier {
}
class MemberDecl {
}
class Modifier {
}
class OptionLiteral {
}
class Primary {
}
class SimpleLiteral {
}
class SimpleOptionLiteral {
}
class Type {
}
class deviceModelingLanguage_AccessExp {
}
class deviceModelingLanguage_Accessor {
}
class deviceModelingLanguage_AnyNatConstraint {
}
class deviceModelingLanguage_App {
}
class deviceModelingLanguage_Assignment {
  + name : str
}
class deviceModelingLanguage_AttrDecl {
  + attributeName : str
}
class deviceModelingLanguage_BaseFeatureType {
}
class deviceModelingLanguage_BaseType {
}
class deviceModelingLanguage_BasicLiteral {
  + lit : str
}
class deviceModelingLanguage_BinaryExp {
  + op : str
}
class deviceModelingLanguage_Const {
  + class_ : bool
  + instance : bool
  + product : bool
  + schema : bool
}
class deviceModelingLanguage_ConstraintExp {
}
class deviceModelingLanguage_ConstraintNat {
}
class deviceModelingLanguage_Data {
}
class deviceModelingLanguage_Decl {
  + name : str
}
class deviceModelingLanguage_Device {
}
class deviceModelingLanguage_EitherFeatureType {
  + choice : str
}
class deviceModelingLanguage_Exp {
}
class deviceModelingLanguage_Feature {
  + class_ : bool
  + product : bool
  + schema : bool
}
class deviceModelingLanguage_FeatureDecl {
}
class deviceModelingLanguage_FeatureType {
}
class deviceModelingLanguage_GeneralInvariant {
}
class deviceModelingLanguage_InvariantDecl {
  + invName : str
}
class deviceModelingLanguage_Literal {
}
class deviceModelingLanguage_LiteralExp {
}
class deviceModelingLanguage_MModifier {
}
class deviceModelingLanguage_MemberDecl {
}
class deviceModelingLanguage_Model {
  + class_ : bool
  + product : bool
  + schema : bool
}
class deviceModelingLanguage_Modifier {
}
class deviceModelingLanguage_MultiplicityInvariant {
}
class deviceModelingLanguage_NameExp {
  + id : str
}
class deviceModelingLanguage_NoneLiteral {
}
class deviceModelingLanguage_NoneType {
}
class deviceModelingLanguage_NumNatConstraint {
  + num : str
}
class deviceModelingLanguage_OptionFeatureType {
  + none : bool
}
class deviceModelingLanguage_OptionLiteral {
}
class deviceModelingLanguage_OptionType {
}
class deviceModelingLanguage_Override {
}
class deviceModelingLanguage_Param {
  + name : str
}
class deviceModelingLanguage_Primary {
}
class deviceModelingLanguage_PrimaryExp {
}
class deviceModelingLanguage_Report {
  + name : str
}
class deviceModelingLanguage_ReportMemberDecl {
  + name : str
}
class deviceModelingLanguage_SeqFeatureType {
}
class deviceModelingLanguage_SeqLiteral {
}
class deviceModelingLanguage_SeqType {
}
class deviceModelingLanguage_SetFeatureType {
}
class deviceModelingLanguage_SetLiteral {
}
class deviceModelingLanguage_SetType {
}
class deviceModelingLanguage_SimpleBasicLiteral {
  + lit : str
}
class deviceModelingLanguage_SimpleLiteral {
}
class deviceModelingLanguage_SimpleNoneLiteral {
}
class deviceModelingLanguage_SimpleOptionLiteral {
}
class deviceModelingLanguage_SimpleSeqLiteral {
}
class deviceModelingLanguage_SimpleSetLiteral {
}
class deviceModelingLanguage_SimpleSomeLiteral {
}
class deviceModelingLanguage_SimpleTupleLiteral {
}
class deviceModelingLanguage_SomeFeatureType {
}
class deviceModelingLanguage_SomeLiteral {
}
class deviceModelingLanguage_SomeType {
}
class deviceModelingLanguage_SubMemberDecl {
  + name : str
}
class deviceModelingLanguage_SubMemberMatch {
  + any : str
  + name : str
  + qNames : str
}
class deviceModelingLanguage_TupleLiteral {
}
class deviceModelingLanguage_TupleType {
}
class deviceModelingLanguage_Type {
}
class deviceModelingLanguage_TypeDecl {
}
class deviceModelingLanguage_UnaryExp {
  + op : str
}
class deviceModelingLanguage_Val {
}
class deviceModelingLanguage_Var {
}
Accessor <|-- deviceModelingLanguage_AttrDecl
Accessor <|-- deviceModelingLanguage_SubMemberDecl
BaseType <|-- deviceModelingLanguage_NoneType
BaseType <|-- deviceModelingLanguage_OptionType
BaseType <|-- deviceModelingLanguage_SomeType
BaseType <|-- deviceModelingLanguage_TupleType
ConstraintNat <|-- deviceModelingLanguage_AnyNatConstraint
ConstraintNat <|-- deviceModelingLanguage_NumNatConstraint
Decl <|-- deviceModelingLanguage_FeatureDecl
Decl <|-- deviceModelingLanguage_TypeDecl
Exp <|-- deviceModelingLanguage_AccessExp
Exp <|-- deviceModelingLanguage_BinaryExp
Exp <|-- deviceModelingLanguage_PrimaryExp
Exp <|-- deviceModelingLanguage_UnaryExp
FeatureDecl <|-- deviceModelingLanguage_App
FeatureDecl <|-- deviceModelingLanguage_Data
FeatureDecl <|-- deviceModelingLanguage_Device
FeatureDecl <|-- deviceModelingLanguage_Feature
FeatureType <|-- deviceModelingLanguage_BaseFeatureType
FeatureType <|-- deviceModelingLanguage_EitherFeatureType
FeatureType <|-- deviceModelingLanguage_OptionFeatureType
FeatureType <|-- deviceModelingLanguage_SeqFeatureType
FeatureType <|-- deviceModelingLanguage_SetFeatureType
FeatureType <|-- deviceModelingLanguage_SomeFeatureType
InvariantDecl <|-- deviceModelingLanguage_GeneralInvariant
InvariantDecl <|-- deviceModelingLanguage_MultiplicityInvariant
Literal <|-- deviceModelingLanguage_BasicLiteral
Literal <|-- deviceModelingLanguage_OptionLiteral
Literal <|-- deviceModelingLanguage_SeqLiteral
Literal <|-- deviceModelingLanguage_SetLiteral
Literal <|-- deviceModelingLanguage_TupleLiteral
MModifier <|-- deviceModelingLanguage_Const
MModifier <|-- deviceModelingLanguage_Data
MModifier <|-- deviceModelingLanguage_Override
MModifier <|-- deviceModelingLanguage_Val
MModifier <|-- deviceModelingLanguage_Var
MemberDecl <|-- deviceModelingLanguage_AttrDecl
MemberDecl <|-- deviceModelingLanguage_InvariantDecl
MemberDecl <|-- deviceModelingLanguage_SubMemberDecl
Modifier <|-- deviceModelingLanguage_Const
Modifier <|-- deviceModelingLanguage_Override
Modifier <|-- deviceModelingLanguage_Val
Modifier <|-- deviceModelingLanguage_Var
OptionLiteral <|-- deviceModelingLanguage_NoneLiteral
OptionLiteral <|-- deviceModelingLanguage_SomeLiteral
Primary <|-- deviceModelingLanguage_LiteralExp
Primary <|-- deviceModelingLanguage_NameExp
SimpleLiteral <|-- deviceModelingLanguage_SimpleBasicLiteral
SimpleLiteral <|-- deviceModelingLanguage_SimpleOptionLiteral
SimpleLiteral <|-- deviceModelingLanguage_SimpleSeqLiteral
SimpleLiteral <|-- deviceModelingLanguage_SimpleSetLiteral
SimpleLiteral <|-- deviceModelingLanguage_SimpleTupleLiteral
SimpleOptionLiteral <|-- deviceModelingLanguage_SimpleNoneLiteral
SimpleOptionLiteral <|-- deviceModelingLanguage_SimpleSomeLiteral
Type <|-- deviceModelingLanguage_BaseType
Type <|-- deviceModelingLanguage_SeqType
Type <|-- deviceModelingLanguage_SetType
deviceModelingLanguage_AccessExp "1..1" -- "0..1" deviceModelingLanguage_Accessor : accessor106
deviceModelingLanguage_Exp "0..1" --* "1..1" deviceModelingLanguage_UnaryExp : arg101
deviceModelingLanguage_Exp "0..9999" --* "1..1" deviceModelingLanguage_Report : args24
deviceModelingLanguage_Assignment "0..9999" --* "1..1" deviceModelingLanguage_FeatureDecl : assigns9
deviceModelingLanguage_AccessExp "1..1" *-- "0..1" deviceModelingLanguage_PrimaryExp : base104
deviceModelingLanguage_SeqType "1..1" *-- "0..1" deviceModelingLanguage_Type : base111
deviceModelingLanguage_SetType "1..1" *-- "0..1" deviceModelingLanguage_Type : base113
deviceModelingLanguage_OptionType "1..1" *-- "0..1" deviceModelingLanguage_Type : base117
deviceModelingLanguage_SomeType "1..1" *-- "0..1" deviceModelingLanguage_Type : base119
deviceModelingLanguage_NoneType "1..1" *-- "0..1" deviceModelingLanguage_Type : base121
deviceModelingLanguage_BaseFeatureType "0..1" --* "1..1" deviceModelingLanguage_OptionFeatureType : base74
deviceModelingLanguage_BaseFeatureType "0..1" --* "1..1" deviceModelingLanguage_SomeFeatureType : base76
deviceModelingLanguage_BaseFeatureType "0..1" --* "1..1" deviceModelingLanguage_SeqFeatureType : base86
deviceModelingLanguage_BaseFeatureType "0..1" --* "1..1" deviceModelingLanguage_SetFeatureType : base91
deviceModelingLanguage_BaseFeatureType "0..9999" --* "1..1" deviceModelingLanguage_EitherFeatureType : bases81
deviceModelingLanguage_Accessor "0..9999" -- "1..1" deviceModelingLanguage_ReportMemberDecl : bindingName52
deviceModelingLanguage_BaseFeatureType "1..1" -- "0..9999" deviceModelingLanguage_FeatureDecl : components26
deviceModelingLanguage_Device "1..1" -- "0..9999" deviceModelingLanguage_FeatureDecl : components42
deviceModelingLanguage_ConstraintExp "1..1" *-- "0..1" deviceModelingLanguage_Exp : cond47
deviceModelingLanguage_ConstraintExp "0..1" --* "1..1" deviceModelingLanguage_Device : constraint45
deviceModelingLanguage_Decl "0..9999" --* "1..1" deviceModelingLanguage_Model : decls0
deviceModelingLanguage_Device "0..9999" --* "1..1" deviceModelingLanguage_FeatureDecl : devices7
deviceModelingLanguage_TupleType "1..1" *-- "0..9999" deviceModelingLanguage_Type : elemTypes115
deviceModelingLanguage_SeqLiteral "1..1" *-- "0..1" deviceModelingLanguage_Type : elementType59
deviceModelingLanguage_SetLiteral "1..1" *-- "0..1" deviceModelingLanguage_Type : elementType63
deviceModelingLanguage_BaseFeatureType "0..9999" --* "1..1" deviceModelingLanguage_SeqFeatureType : elements88
deviceModelingLanguage_BaseFeatureType "0..9999" --* "1..1" deviceModelingLanguage_SetFeatureType : elements93
deviceModelingLanguage_Literal "0..9999" --* "1..1" deviceModelingLanguage_TupleLiteral : elems57
deviceModelingLanguage_SeqLiteral "1..1" *-- "0..9999" deviceModelingLanguage_SimpleLiteral : elems61
deviceModelingLanguage_SetLiteral "1..1" *-- "0..9999" deviceModelingLanguage_SimpleLiteral : elems65
deviceModelingLanguage_SimpleLiteral "0..9999" --* "1..1" deviceModelingLanguage_SimpleTupleLiteral : elems68
deviceModelingLanguage_SimpleLiteral "0..9999" --* "1..1" deviceModelingLanguage_SimpleSeqLiteral : elems70
deviceModelingLanguage_SimpleLiteral "0..9999" --* "1..1" deviceModelingLanguage_SimpleSetLiteral : elems72
deviceModelingLanguage_Exp "0..1" --* "1..1" deviceModelingLanguage_FeatureDecl : exp11
deviceModelingLanguage_Assignment "1..1" *-- "0..1" deviceModelingLanguage_Exp : exp21
deviceModelingLanguage_Exp "0..1" --* "1..1" deviceModelingLanguage_GeneralInvariant : exp40
deviceModelingLanguage_ConstraintNat "0..1" --* "1..1" deviceModelingLanguage_MultiplicityInvariant : hi32
deviceModelingLanguage_BinaryExp "1..1" *-- "0..1" deviceModelingLanguage_Exp : left96
deviceModelingLanguage_BasicLiteral "0..1" --* "1..1" deviceModelingLanguage_LiteralExp : lit109
deviceModelingLanguage_Literal "0..1" --* "1..1" deviceModelingLanguage_SomeLiteral : lit125
deviceModelingLanguage_SimpleLiteral "0..1" --* "1..1" deviceModelingLanguage_SimpleSomeLiteral : lit127
deviceModelingLanguage_AttrDecl "1..1" *-- "0..1" deviceModelingLanguage_Literal : literal16
deviceModelingLanguage_ConstraintNat "0..1" --* "1..1" deviceModelingLanguage_MultiplicityInvariant : lo31
deviceModelingLanguage_MultiplicityInvariant "1..1" *-- "0..1" deviceModelingLanguage_SubMemberMatch : match35
deviceModelingLanguage_BaseFeatureType "1..1" *-- "0..9999" deviceModelingLanguage_MemberDecl : members28
deviceModelingLanguage_FeatureDecl "1..1" *-- "0..9999" deviceModelingLanguage_MemberDecl : members5
deviceModelingLanguage_MemberDecl "0..9999" --* "1..1" deviceModelingLanguage_SomeFeatureType : members78
deviceModelingLanguage_EitherFeatureType "1..1" *-- "0..9999" deviceModelingLanguage_MemberDecl : members83
deviceModelingLanguage_AttrDecl "1..1" *-- "0..1" deviceModelingLanguage_Modifier : modifier13
deviceModelingLanguage_MModifier "0..1" --* "1..1" deviceModelingLanguage_SubMemberDecl : modifier18
deviceModelingLanguage_Primary "0..1" --* "1..1" deviceModelingLanguage_PrimaryExp : primary103
deviceModelingLanguage_BinaryExp "1..1" *-- "0..1" deviceModelingLanguage_Exp : right98
deviceModelingLanguage_TypeDecl "1..1" -- "0..9999" deviceModelingLanguage_TypeDecl : supers2
deviceModelingLanguage_FeatureDecl "1..1" -- "0..9999" deviceModelingLanguage_FeatureDecl : supers4
deviceModelingLanguage_NoneLiteral "1..1" *-- "0..1" deviceModelingLanguage_Type : type123
deviceModelingLanguage_AttrDecl "1..1" *-- "0..1" deviceModelingLanguage_Type : type14
deviceModelingLanguage_FeatureType "0..1" --* "1..1" deviceModelingLanguage_SubMemberDecl : type19
deviceModelingLanguage_FeatureDecl "0..1" -- "1..1" deviceModelingLanguage_MultiplicityInvariant : type37
deviceModelingLanguage_BaseFeatureType "0..1" --* "1..1" deviceModelingLanguage_Param : type50
deviceModelingLanguage_BaseType "1..1" -- "0..1" deviceModelingLanguage_TypeDecl : type53
deviceModelingLanguage_BasicLiteral "1..1" -- "0..1" deviceModelingLanguage_TypeDecl : typeCons55
@enduml