@startuml
class lts_LTS {
  + name : str
}
class lts_State {
  + name : str
}
class lts_Transition {
  + input : str
  + output : str
}
lts_LTS "1..1" -- "0..1" lts_State : currentState2
lts_LTS "1..1" -- "0..9999" lts_State : finalState5
lts_State "1..1" -- "0..9999" lts_Transition : incomingTransition10
lts_LTS "1..1" -- "1..1" lts_State : initialState1
lts_State "1..1" *-- "0..9999" lts_Transition : outgoingTransition9
lts_LTS "1..1" *-- "0..9999" lts_State : ownedState0
lts_LTS "1..1" -- "1..1" lts_State : owningLTS8
lts_State "1..1" -- "1..1" lts_Transition : source12
lts_State "1..1" -- "1..1" lts_Transition : target14
@enduml