@startuml
class fsm_FSM {
  + name : str
}
class fsm_State {
  + name : str
}
class fsm_Transition {
  + input : str
  + output : str
}
fsm_FSM "0..1" -- "1..1" fsm_Transition : containingFSM13
fsm_FSM "1..1" -- "1..1" fsm_State : containingFSM8
fsm_State "1..1" -- "0..9999" fsm_Transition : incomingTransitions6
fsm_FSM "1..1" -- "1..1" fsm_State : initialState3
fsm_State "1..1" -- "0..9999" fsm_Transition : outgoingTransitions4
fsm_State "1..1" -- "1..1" fsm_Transition : source11
fsm_FSM "1..1" *-- "0..9999" fsm_State : states0
fsm_State "1..1" -- "1..1" fsm_Transition : target9
fsm_FSM "1..1" *-- "0..9999" fsm_Transition : transitions1
@enduml