@startuml
class AnnotationStatement {
}
class AnyType {
}
class ArithmeticOperatorExpression {
}
class AssignmentStatement {
}
class BinaryOperatorExpression {
}
class Block {
}
class CollectionExpression {
}
class CollectionInitialisationExpression {
}
class CollectionType {
}
class ComparableExpression {
}
class ComparablePrimitiveType {
}
class ComparisonOperatorExpression {
}
class EOLElement {
}
class EOLLibraryModule {
}
class Expression {
}
class FeatureCallExpression {
}
class KeyValueExpression {
}
class LogicalOperatorExpression {
}
class OperatorExpression {
}
class OrderedCollection {
}
class OrderedCollectionType {
}
class PrimitiveExpression {
}
class PrimitiveType {
}
class PseudoType {
}
class RealType {
}
class Statement {
}
class SummableExpression {
}
class SummablePrimitiveType {
}
class SwitchCaseStatement {
}
class Type {
}
class UnaryOperatorExpression {
}
class UniqueCollection {
}
class UniqueCollectionType {
}
class VariableDeclarationExpression {
}
class eol_AbortStatement {
}
class eol_AndOperatorExpression {
}
class eol_AnnotationBlock {
}
class eol_AnnotationStatement {
}
class eol_AnyType {
  + declared : bool
}
abstract class eol_ArithmeticOperatorExpression {
}
class eol_AssignmentStatement {
}
class eol_BagExpression {
}
class eol_BagType {
}
abstract class eol_BinaryOperatorExpression {
}
class eol_Block {
}
class eol_BooleanExpression {
  + value : bool
}
class eol_BooleanType {
}
class eol_BreakAllStatement {
}
class eol_BreakStatement {
}
abstract class eol_CollectionExpression {
}
abstract class eol_CollectionInitialisationExpression {
}
class eol_CollectionType {
}
abstract class eol_ComparableExpression {
}
abstract class eol_ComparablePrimitiveType {
}
abstract class eol_ComparisonOperatorExpression {
}
class eol_ContinueStatement {
}
class eol_DeleteStatement {
}
class eol_DivideOperatorExpression {
}
class eol_EOLElement {
  + uri : str
}
class eol_EOLLibraryModule {
  + name : str
}
class eol_EOLProgram {
}
class eol_EnumerationLiteralExpression {
}
class eol_EqualsOperatorExpression {
}
class eol_ExecutableAnnotationStatement {
}
abstract class eol_Expression {
}
class eol_ExpressionList {
}
class eol_ExpressionOrStatementBlock {
}
class eol_ExpressionRange {
}
class eol_ExpressionStatement {
}
class eol_FOLMethodCallExpression {
}
abstract class eol_FeatureCallExpression {
  + isArrow : bool
}
class eol_ForStatement {
}
class eol_FormalParameterExpression {
}
class eol_GreaterThanOperatorExpression {
}
class eol_GreaterThanOrEqualToOperatorExpression {
}
class eol_IModel {
  + iMetamodelDriver : str
}
class eol_IPackage {
  + iPackageDriver : str
  + name : str
  + nsPrefix : str
}
class eol_IfStatement {
}
class eol_ImpliesOperatorExpression {
}
class eol_Import {
  + imported : str
}
class eol_IntegerExpression {
  + value : int
}
class eol_IntegerType {
}
class eol_InvalidType {
}
class eol_KeyValueExpression {
}
class eol_LessThanOperatorExpression {
}
class eol_LessThanOrEqualToOperatorExpression {
}
abstract class eol_LogicalOperatorExpression {
}
class eol_MapExpression {
}
class eol_MapType {
}
class eol_MethodCallExpression {
}
class eol_MinusOperatorExpression {
}
class eol_ModelDeclarationParameter {
}
class eol_ModelDeclarationStatement {
}
class eol_ModelElementType {
  + elementName : str
  + modelName : str
  + modelType : str
}
class eol_ModelType {
}
class eol_MultiplyOperatorExpression {
}
class eol_NameExpression {
  + isType : bool
  + name : str
  + resolvedContent : str
}
class eol_NativeType {
}
class eol_NegativeOperatorExpression {
}
class eol_NewExpression {
}
class eol_NotEqualsOperatorExpression {
}
class eol_NotOperatorExpression {
}
class eol_OperationDefinition {
}
abstract class eol_OperatorExpression {
}
class eol_OrOperatorExpression {
}
abstract class eol_OrderedCollection {
}
abstract class eol_OrderedCollectionType {
}
class eol_OrderedSetExpression {
}
class eol_OrderedSetType {
}
class eol_PlusOperatorExpression {
}
abstract class eol_PrimitiveExpression {
}
abstract class eol_PrimitiveType {
}
class eol_PropertyCallExpression {
  + extended : bool
}
abstract class eol_PseudoType {
}
class eol_RealExpression {
  + value : float
}
class eol_RealType {
}
class eol_ReturnStatement {
}
class eol_SelfContentType {
}
class eol_SelfInnermostContentType {
}
class eol_SelfType {
}
class eol_SequenceExpression {
}
class eol_SequenceType {
}
class eol_SetExpression {
}
class eol_SetType {
}
class eol_SimpleAnnotationStatement {
}
class eol_SpecialAssignmentStatement {
}
abstract class eol_Statement {
}
class eol_StringExpression {
  + value : str
}
class eol_StringType {
}
abstract class eol_SummableExpression {
}
abstract class eol_SummablePrimitiveType {
}
class eol_SwitchCaseDefaultStatement {
}
class eol_SwitchCaseExpressionStatement {
}
abstract class eol_SwitchCaseStatement {
}
class eol_SwitchStatement {
}
class eol_TextPosition {
  + column : int
  + line : int
}
class eol_TextRegion {
}
class eol_ThrowStatement {
}
class eol_TransactionStatement {
}
class eol_Type {
}
abstract class eol_UnaryOperatorExpression {
}
abstract class eol_UniqueCollection {
}
abstract class eol_UniqueCollectionType {
}
class eol_VariableDeclarationExpression {
  + create : bool
}
class eol_VoidType {
}
class eol_WhileStatement {
}
class eol_XorOperatorExpression {
}
AnnotationStatement <|-- eol_ExecutableAnnotationStatement
AnnotationStatement <|-- eol_SimpleAnnotationStatement
AnyType <|-- eol_CollectionType
AnyType <|-- eol_InvalidType
AnyType <|-- eol_MapType
AnyType <|-- eol_ModelElementType
AnyType <|-- eol_ModelType
AnyType <|-- eol_NativeType
AnyType <|-- eol_PrimitiveType
AnyType <|-- eol_PseudoType
AnyType <|-- eol_VoidType
ArithmeticOperatorExpression <|-- eol_DivideOperatorExpression
ArithmeticOperatorExpression <|-- eol_MinusOperatorExpression
ArithmeticOperatorExpression <|-- eol_MultiplyOperatorExpression
ArithmeticOperatorExpression <|-- eol_PlusOperatorExpression
AssignmentStatement <|-- eol_SpecialAssignmentStatement
BinaryOperatorExpression <|-- eol_ArithmeticOperatorExpression
BinaryOperatorExpression <|-- eol_ComparisonOperatorExpression
BinaryOperatorExpression <|-- eol_LogicalOperatorExpression
Block <|-- eol_AnnotationBlock
CollectionExpression <|-- eol_BagExpression
CollectionExpression <|-- eol_OrderedCollection
CollectionExpression <|-- eol_UniqueCollection
CollectionInitialisationExpression <|-- eol_ExpressionList
CollectionInitialisationExpression <|-- eol_ExpressionRange
CollectionType <|-- eol_BagType
CollectionType <|-- eol_OrderedCollectionType
CollectionType <|-- eol_UniqueCollectionType
ComparableExpression <|-- eol_IntegerExpression
ComparableExpression <|-- eol_RealExpression
ComparableExpression <|-- eol_StringExpression
ComparablePrimitiveType <|-- eol_RealType
ComparablePrimitiveType <|-- eol_StringType
ComparisonOperatorExpression <|-- eol_EqualsOperatorExpression
ComparisonOperatorExpression <|-- eol_GreaterThanOperatorExpression
ComparisonOperatorExpression <|-- eol_GreaterThanOrEqualToOperatorExpression
ComparisonOperatorExpression <|-- eol_LessThanOperatorExpression
ComparisonOperatorExpression <|-- eol_LessThanOrEqualToOperatorExpression
ComparisonOperatorExpression <|-- eol_NotEqualsOperatorExpression
EOLElement <|-- eol_Block
EOLElement <|-- eol_EOLLibraryModule
EOLElement <|-- eol_Expression
EOLElement <|-- eol_ExpressionOrStatementBlock
EOLElement <|-- eol_IModel
EOLElement <|-- eol_IPackage
EOLElement <|-- eol_Import
EOLElement <|-- eol_OperationDefinition
EOLElement <|-- eol_Statement
EOLElement <|-- eol_TextPosition
EOLElement <|-- eol_TextRegion
EOLElement <|-- eol_Type
EOLLibraryModule <|-- eol_EOLProgram
Expression <|-- eol_CollectionExpression
Expression <|-- eol_CollectionInitialisationExpression
Expression <|-- eol_EnumerationLiteralExpression
Expression <|-- eol_FeatureCallExpression
Expression <|-- eol_KeyValueExpression
Expression <|-- eol_MapExpression
Expression <|-- eol_NameExpression
Expression <|-- eol_NewExpression
Expression <|-- eol_OperatorExpression
Expression <|-- eol_PrimitiveExpression
Expression <|-- eol_VariableDeclarationExpression
FeatureCallExpression <|-- eol_FOLMethodCallExpression
FeatureCallExpression <|-- eol_MethodCallExpression
FeatureCallExpression <|-- eol_PropertyCallExpression
KeyValueExpression <|-- eol_ModelDeclarationParameter
LogicalOperatorExpression <|-- eol_AndOperatorExpression
LogicalOperatorExpression <|-- eol_ImpliesOperatorExpression
LogicalOperatorExpression <|-- eol_OrOperatorExpression
LogicalOperatorExpression <|-- eol_XorOperatorExpression
OperatorExpression <|-- eol_BinaryOperatorExpression
OperatorExpression <|-- eol_UnaryOperatorExpression
OrderedCollection <|-- eol_OrderedSetExpression
OrderedCollection <|-- eol_SequenceExpression
OrderedCollectionType <|-- eol_OrderedSetType
OrderedCollectionType <|-- eol_SequenceType
PrimitiveExpression <|-- eol_BooleanExpression
PrimitiveExpression <|-- eol_ComparableExpression
PrimitiveExpression <|-- eol_SummableExpression
PrimitiveType <|-- eol_BooleanType
PrimitiveType <|-- eol_ComparablePrimitiveType
PrimitiveType <|-- eol_SummablePrimitiveType
PseudoType <|-- eol_SelfContentType
PseudoType <|-- eol_SelfInnermostContentType
PseudoType <|-- eol_SelfType
RealType <|-- eol_IntegerType
Statement <|-- eol_AbortStatement
Statement <|-- eol_AnnotationStatement
Statement <|-- eol_AssignmentStatement
Statement <|-- eol_BreakAllStatement
Statement <|-- eol_BreakStatement
Statement <|-- eol_ContinueStatement
Statement <|-- eol_DeleteStatement
Statement <|-- eol_ExpressionStatement
Statement <|-- eol_ForStatement
Statement <|-- eol_IfStatement
Statement <|-- eol_ModelDeclarationStatement
Statement <|-- eol_ReturnStatement
Statement <|-- eol_SwitchCaseStatement
Statement <|-- eol_SwitchStatement
Statement <|-- eol_ThrowStatement
Statement <|-- eol_TransactionStatement
Statement <|-- eol_WhileStatement
SummableExpression <|-- eol_IntegerExpression
SummableExpression <|-- eol_RealExpression
SummableExpression <|-- eol_StringExpression
SummablePrimitiveType <|-- eol_RealType
SummablePrimitiveType <|-- eol_StringType
SwitchCaseStatement <|-- eol_SwitchCaseDefaultStatement
SwitchCaseStatement <|-- eol_SwitchCaseExpressionStatement
Type <|-- eol_AnyType
UnaryOperatorExpression <|-- eol_NegativeOperatorExpression
UnaryOperatorExpression <|-- eol_NotOperatorExpression
UniqueCollection <|-- eol_OrderedSetExpression
UniqueCollection <|-- eol_SetExpression
UniqueCollectionType <|-- eol_OrderedSetType
UniqueCollectionType <|-- eol_SetType
VariableDeclarationExpression <|-- eol_FormalParameterExpression
eol_ModelDeclarationStatement "1..1" *-- "0..9999" eol_VariableDeclarationExpression : alias202
eol_IModel "1..1" -- "0..9999" eol_NameExpression : aliases5
eol_AnnotationBlock "0..1" --* "1..1" eol_OperationDefinition : annotationBlock46
eol_Expression "0..9999" --* "1..1" eol_MethodCallExpression : arguments85
eol_Block "0..1" --* "1..1" eol_EOLProgram : block31
eol_Block "0..1" --* "1..1" eol_ExpressionOrStatementBlock : block37
eol_ExpressionOrStatementBlock "1..1" --* "1..1" eol_TransactionStatement : body142
eol_ExpressionOrStatementBlock "1..1" --* "1..1" eol_SwitchCaseStatement : body153
eol_ExpressionOrStatementBlock "1..1" --* "1..1" eol_ForStatement : body171
eol_ExpressionOrStatementBlock "1..1" --* "1..1" eol_WhileStatement : body176
eol_Block "0..1" --* "1..1" eol_OperationDefinition : body48
eol_SwitchCaseExpressionStatement "0..9999" --* "1..1" eol_SwitchStatement : cases149
eol_Expression "1..1" --* "1..1" eol_IfStatement : condition158
eol_Expression "1..1" --* "1..1" eol_ForStatement : condition168
eol_Expression "1..1" --* "1..1" eol_WhileStatement : condition174
eol_Expression "1..1" --* "1..1" eol_FOLMethodCallExpression : condition97
eol_EOLElement "1..1" -- "0..1" eol_EOLElement : container1
eol_CollectionType "1..1" *-- "1..1" eol_Type : contentType229
eol_CollectionExpression "1..1" *-- "0..9999" eol_Expression : contents118
eol_OperationDefinition "1..1" *-- "1..1" eol_Type : contextType41
eol_SwitchCaseDefaultStatement "0..1" --* "1..1" eol_SwitchStatement : default151
eol_OperationDefinition "0..9999" -- "1..1" eol_OperationDefinition : dependingOperationDefinitions62
eol_ModelDeclarationStatement "1..1" *-- "1..1" eol_NameExpression : driver199
eol_IModel "1..1" -- "1..1" eol_NameExpression : driver8
eol_AnyType "1..1" *-- "0..9999" eol_Type : dynamicTypes210
eol_ExpressionOrStatementBlock "0..1" --* "1..1" eol_IfStatement : elseBody163
eol_Expression "1..1" --* "1..1" eol_ExpressionRange : end135
eol_TextPosition "0..1" --* "1..1" eol_TextRegion : end20
eol_EnumerationLiteralExpression "1..1" *-- "1..1" eol_NameExpression : enumeration124
eol_Expression "1..1" --* "1..1" eol_ExpressionStatement : expression145
eol_Expression "1..1" --* "1..1" eol_SwitchStatement : expression147
eol_Expression "1..1" --* "1..1" eol_SwitchCaseExpressionStatement : expression155
eol_Expression "1..1" --* "1..1" eol_ReturnStatement : expression179
eol_Expression "1..1" --* "1..1" eol_ThrowStatement : expression181
eol_DeleteStatement "1..1" *-- "1..1" eol_Expression : expression183
eol_ExecutableAnnotationStatement "1..1" *-- "1..1" eol_Expression : expression194
eol_NativeType "1..1" *-- "1..1" eol_StringExpression : expression227
eol_Expression "0..1" --* "1..1" eol_ExpressionOrStatementBlock : expression39
eol_Expression "1..1" --* "1..1" eol_UnaryOperatorExpression : expression67
eol_Expression "1..9999" --* "1..1" eol_ExpressionList : expressions138
eol_EnumerationLiteralExpression "1..1" -- "0..1" eol_IModel : iModel127
eol_EOLLibraryModule "1..1" -- "0..9999" eol_IModel : iModels24
eol_IModel "1..1" *-- "0..9999" eol_IPackage : iPackages11
eol_ExpressionOrStatementBlock "1..1" --* "1..1" eol_IfStatement : ifBody160
eol_IModel "1..1" --* "1..1" eol_ModelDeclarationStatement : imodel205
eol_EOLLibraryModule "1..1" --* "1..1" eol_Import : importedModule32
eol_EOLLibraryModule "1..1" *-- "0..9999" eol_Import : imports23
eol_ForStatement "1..1" *-- "1..1" eol_FormalParameterExpression : iterator166
eol_FOLMethodCallExpression "1..1" *-- "1..1" eol_FormalParameterExpression : iterator95
eol_Expression "1..1" --* "1..1" eol_KeyValueExpression : key106
eol_AnyType "0..1" -- "1..1" eol_MapType : keyType222
eol_KeyValueExpression "0..9999" --* "1..1" eol_MapExpression : keyValues116
eol_AssignmentStatement "1..1" *-- "1..1" eol_Expression : lhs185
eol_BinaryOperatorExpression "1..1" *-- "1..1" eol_Expression : lhs69
eol_EnumerationLiteralExpression "1..1" *-- "1..1" eol_NameExpression : literal122
eol_FOLMethodCallExpression "1..1" *-- "1..1" eol_NameExpression : method100
eol_MethodCallExpression "1..1" *-- "1..1" eol_NameExpression : method87
eol_EnumerationLiteralExpression "1..1" *-- "0..1" eol_NameExpression : model130
eol_EOLLibraryModule "1..1" *-- "0..9999" eol_ModelDeclarationStatement : modelDeclarations27
eol_AnnotationStatement "1..1" *-- "1..1" eol_NameExpression : name190
eol_ModelDeclarationStatement "1..1" *-- "1..1" eol_VariableDeclarationExpression : name196
eol_IModel "1..1" -- "1..1" eol_NameExpression : name4
eol_NameExpression "1..1" --* "1..1" eol_OperationDefinition : name51
eol_NameExpression "1..1" --* "1..1" eol_VariableDeclarationExpression : name74
eol_NameExpression "0..9999" --* "1..1" eol_TransactionStatement : names140
eol_IPackage "1..1" -- "0..1" eol_StringExpression : nsURI13
eol_EOLLibraryModule "1..1" *-- "0..9999" eol_OperationDefinition : operations29
eol_CollectionExpression "1..1" *-- "0..1" eol_CollectionInitialisationExpression : parameterList120
eol_Expression "0..9999" --* "1..1" eol_NewExpression : parameters113
eol_ModelDeclarationParameter "0..9999" -- "1..1" eol_ModelDeclarationStatement : parameters208
eol_FormalParameterExpression "0..9999" --* "1..1" eol_OperationDefinition : parameters54
eol_Expression "0..9999" --* "1..1" eol_VariableDeclarationExpression : parameters77
eol_NameExpression "1..1" --* "1..1" eol_PropertyCallExpression : property93
eol_NameExpression "0..9999" -- "1..1" eol_VariableDeclarationExpression : references80
eol_EOLElement "1..1" *-- "0..1" eol_TextRegion : region2
eol_FOLMethodCallExpression "1..1" -- "0..1" eol_OperationDefinition : resolvedFOLDefinition103
eol_IModel "1..1" -- "1..1" eol_ModelType : resolvedIModel212
eol_IModel "1..1" -- "1..1" eol_ModelElementType : resolvedIModel214
eol_IPackage "0..1" -- "1..1" eol_ModelElementType : resolvedIPackage219
eol_ModelDeclarationStatement "1..1" -- "1..1" eol_ModelElementType : resolvedModelDeclaration216
eol_MethodCallExpression "1..1" -- "0..1" eol_OperationDefinition : resolvedOperationDefinition90
eol_Expression "1..1" *-- "1..1" eol_Type : resolvedType64
eol_OperationDefinition "1..1" *-- "0..1" eol_VariableDeclarationExpression : result58
eol_OperationDefinition "1..1" *-- "1..1" eol_Type : returnType43
eol_AssignmentStatement "1..1" *-- "1..1" eol_Expression : rhs187
eol_BinaryOperatorExpression "1..1" *-- "1..1" eol_Expression : rhs71
eol_OperationDefinition "1..1" *-- "1..1" eol_VariableDeclarationExpression : self56
eol_Expression "1..1" --* "1..1" eol_ExpressionRange : start133
eol_TextPosition "1..1" --* "1..1" eol_TextRegion : start18
eol_Block "1..1" *-- "0..9999" eol_Statement : statements35
eol_IPackage "0..9999" --* "1..1" eol_IPackage : subPackages16
eol_Expression "0..1" --* "1..1" eol_FeatureCallExpression : target83
eol_NameExpression "1..1" --* "1..1" eol_NewExpression : typeName111
eol_Expression "1..1" --* "1..1" eol_KeyValueExpression : value108
eol_AnyType "0..1" -- "1..1" eol_MapType : valueType224
eol_SimpleAnnotationStatement "1..1" -- "0..9999" eol_StringExpression : values192
@enduml