@startuml
class AbstractComponent {
}
class Interface {
}
abstract class fragdial_AbstractComponent {
  + name : str
}
class fragdial_Attribute {
  + name : str
  + value : str
}
class fragdial_Attributes {
  + signature : str
}
class fragdial_Binding {
}
class fragdial_Component {
}
class fragdial_Component1 {
}
class fragdial_Component2 {
}
class fragdial_Component3 {
}
class fragdial_Content {
  + class_ : str
  + language : str
}
class fragdial_Controller {
  + descriptor : str
  + language : str
}
class fragdial_Include {
  + file : str
}
abstract class fragdial_Interface {
  + cardinality : str
  + contingency : str
  + name : str
  + signature : str
  + startProperty : str
}
class fragdial_Ldflag {
  + value : str
}
class fragdial_Output {
  + format : str
}
class fragdial_Provided {
}
class fragdial_Required {
}
AbstractComponent <|-- fragdial_Component
AbstractComponent <|-- fragdial_Component1
AbstractComponent <|-- fragdial_Component2
AbstractComponent <|-- fragdial_Component3
Interface <|-- fragdial_Provided
Interface <|-- fragdial_Required
fragdial_AbstractComponent "1..1" *-- "0..1" fragdial_Attributes : attributes1
fragdial_Attribute "0..9999" --* "1..1" fragdial_Attributes : attributes25
fragdial_Binding "0..9999" --* "1..1" fragdial_Interface : bindings11
fragdial_AbstractComponent "1..1" *-- "0..1" fragdial_Content : content0
fragdial_AbstractComponent "1..1" -- "1..1" fragdial_Content : contentParent18
fragdial_AbstractComponent "1..1" *-- "0..1" fragdial_Controller : controller5
fragdial_Binding "1..1" -- "0..1" fragdial_Interface : from_12
fragdial_Content "1..1" *-- "0..9999" fragdial_Include : includes21
fragdial_Content "1..1" *-- "0..9999" fragdial_Ldflag : ldflags23
fragdial_Component "1..1" *-- "0..9999" fragdial_Component1 : nestedComponents127
fragdial_Component1 "1..1" *-- "0..9999" fragdial_Component2 : nestedComponents231
fragdial_Component2 "1..1" *-- "0..9999" fragdial_Component3 : nestedComponents333
fragdial_AbstractComponent "1..1" *-- "0..1" fragdial_Output : output3
fragdial_AbstractComponent "1..1" *-- "0..9999" fragdial_Provided : providedInterfaces9
fragdial_AbstractComponent "1..1" *-- "0..9999" fragdial_Required : requiredInterfaces7
fragdial_Component "0..9999" --* "1..1" fragdial_Component : subComponents29
fragdial_Binding "1..1" -- "0..1" fragdial_Interface : to15
@enduml